<svg width="1721" height="38" viewBox="0 0 1721 38" fill="none" xmlns="http://www.w3.org/2000/svg">
<g clip-path="url(#clip0_386_610)">
<path d="M86.1078 15.4212L82.6878 18.8574L86.1924 22.3785L84.3978 24.1816L80.8931 20.6605L77.4732 24.0966L75.8478 22.4636L79.2678 19.0275L75.7632 15.5063L77.5578 13.7032L81.0625 17.2243L84.4824 13.7882L86.1078 15.4212Z" fill="#1C1C1C"/>
<path d="M176.68 15.4212L173.26 18.8574L176.765 22.3785L174.97 24.1816L171.465 20.6605L168.045 24.0966L166.42 22.4636L169.84 19.0275L166.335 15.5063L168.13 13.7032L171.635 17.2243L175.055 13.7882L176.68 15.4212Z" fill="#1C1C1C"/>
<path d="M267.252 15.4212L263.832 18.8574L267.337 22.3785L265.542 24.1816L262.038 20.6605L258.618 24.0966L256.992 22.4636L260.412 19.0275L256.908 15.5063L258.702 13.7032L262.207 17.2243L265.627 13.7882L267.252 15.4212Z" fill="#1C1C1C"/>
<path d="M357.824 15.4212L354.404 18.8574L357.909 22.3785L356.114 24.1816L352.609 20.6605L349.189 24.0966L347.564 22.4636L350.984 19.0275L347.479 15.5063L349.274 13.7032L352.779 17.2243L356.199 13.7882L357.824 15.4212Z" fill="#1C1C1C"/>
<path d="M448.397 15.4212L444.977 18.8574L448.481 22.3785L446.687 24.1816L443.182 20.6605L439.762 24.0966L438.137 22.4636L441.557 19.0275L438.052 15.5063L439.847 13.7032L443.352 17.2243L446.771 13.7882L448.397 15.4212Z" fill="#1C1C1C"/>
<path d="M538.969 15.4212L535.549 18.8574L539.054 22.3785L537.259 24.1816L533.754 20.6605L530.335 24.0966L528.709 22.4636L532.129 19.0275L528.625 15.5063L530.419 13.7032L533.924 17.2243L537.344 13.7882L538.969 15.4212Z" fill="#1C1C1C"/>
<path d="M629.541 15.4212L626.121 18.8574L629.626 22.3785L627.831 24.1816L624.327 20.6605L620.907 24.0966L619.281 22.4636L622.701 19.0275L619.197 15.5063L620.991 13.7032L624.496 17.2243L627.916 13.7882L629.541 15.4212Z" fill="#1C1C1C"/>
<path d="M720.114 15.4212L716.694 18.8574L720.198 22.3785L718.404 24.1816L714.899 20.6605L711.479 24.0966L709.854 22.4636L713.274 19.0275L709.769 15.5063L711.564 13.7032L715.068 17.2243L718.488 13.7882L720.114 15.4212Z" fill="#1C1C1C"/>
<path d="M810.686 15.4212L807.266 18.8574L810.771 22.3785L808.976 24.1816L805.471 20.6605L802.051 24.0966L800.426 22.4636L803.846 19.0275L800.341 15.5063L802.136 13.7032L805.641 17.2243L809.061 13.7882L810.686 15.4212Z" fill="#1C1C1C"/>
<path d="M901.258 15.4212L897.838 18.8574L901.343 22.3785L899.548 24.1816L896.044 20.6605L892.624 24.0966L890.998 22.4636L894.418 19.0275L890.914 15.5063L892.708 13.7032L896.213 17.2243L899.633 13.7882L901.258 15.4212Z" fill="#1C1C1C"/>
<path d="M991.83 15.4212L988.41 18.8574L991.915 22.3785L990.12 24.1816L986.616 20.6605L983.196 24.0966L981.57 22.4636L984.99 19.0275L981.486 15.5063L983.28 13.7032L986.785 17.2243L990.205 13.7882L991.83 15.4212Z" fill="#1C1C1C"/>
<path d="M1082.4 15.4212L1078.98 18.8574L1082.49 22.3785L1080.69 24.1816L1077.19 20.6605L1073.77 24.0966L1072.14 22.4636L1075.56 19.0275L1072.06 15.5063L1073.85 13.7032L1077.36 17.2243L1080.78 13.7882L1082.4 15.4212Z" fill="#1C1C1C"/>
<path d="M1172.97 15.4212L1169.55 18.8574L1173.06 22.3785L1171.26 24.1816L1167.76 20.6605L1164.34 24.0966L1162.72 22.4636L1166.14 19.0275L1162.63 15.5063L1164.43 13.7032L1167.93 17.2243L1171.35 13.7882L1172.97 15.4212Z" fill="#1C1C1C"/>
<path d="M1263.55 15.4212L1260.13 18.8574L1263.63 22.3785L1261.84 24.1816L1258.33 20.6605L1254.91 24.0966L1253.29 22.4636L1256.71 19.0275L1253.2 15.5063L1255 13.7032L1258.5 17.2243L1261.92 13.7882L1263.55 15.4212Z" fill="#1C1C1C"/>
<path d="M1354.12 15.4212L1350.7 18.8574L1354.2 22.3785L1352.41 24.1816L1348.9 20.6605L1345.48 24.0966L1343.86 22.4636L1347.28 19.0275L1343.77 15.5063L1345.57 13.7032L1349.07 17.2243L1352.49 13.7882L1354.12 15.4212Z" fill="#1C1C1C"/>
<path d="M1444.69 15.4212L1441.27 18.8574L1444.78 22.3785L1442.98 24.1816L1439.48 20.6605L1436.06 24.0966L1434.43 22.4636L1437.85 19.0275L1434.35 15.5063L1436.14 13.7032L1439.65 17.2243L1443.07 13.7882L1444.69 15.4212Z" fill="#1C1C1C"/>
<path d="M1535.26 15.4212L1531.84 18.8574L1535.35 22.3785L1533.55 24.1816L1530.05 20.6605L1526.63 24.0966L1525 22.4636L1528.42 19.0275L1524.92 15.5063L1526.71 13.7032L1530.22 17.2243L1533.64 13.7882L1535.26 15.4212Z" fill="#1C1C1C"/>
<path d="M1625.84 15.4212L1622.42 18.8574L1625.92 22.3785L1624.13 24.1816L1620.62 20.6605L1617.2 24.0966L1615.58 22.4636L1619 19.0275L1615.49 15.5063L1617.29 13.7032L1620.79 17.2243L1624.21 13.7882L1625.84 15.4212Z" fill="#1C1C1C"/>
<path d="M1718.4 15.4212L1714.98 18.8574L1718.48 22.3785L1716.69 24.1816L1713.19 20.6605L1709.77 24.0966L1708.14 22.4636L1711.56 19.0275L1708.06 15.5063L1709.85 13.7032L1713.35 17.2243L1716.77 13.7882L1718.4 15.4212Z" fill="#1C1C1C"/>
<path d="M23.52 10.7342L18.576 27.4142H15.48L11.976 14.7902L8.256 27.4142L5.184 27.4382L0.456 10.7342H3.36L6.816 24.3182L10.56 10.7342H13.632L17.112 24.2462L20.592 10.7342H23.52ZM33.3846 27.5822C31.8326 27.5822 30.4006 27.2222 29.0886 26.5022C27.7926 25.7662 26.7606 24.7502 25.9926 23.4542C25.2406 22.1422 24.8646 20.6702 24.8646 19.0382C24.8646 17.4062 25.2406 15.9422 25.9926 14.6462C26.7606 13.3502 27.7926 12.3422 29.0886 11.6222C30.4006 10.8862 31.8326 10.5182 33.3846 10.5182C34.9526 10.5182 36.3846 10.8862 37.6806 11.6222C38.9926 12.3422 40.0246 13.3502 40.7766 14.6462C41.5286 15.9422 41.9046 17.4062 41.9046 19.0382C41.9046 20.6702 41.5286 22.1422 40.7766 23.4542C40.0246 24.7502 38.9926 25.7662 37.6806 26.5022C36.3846 27.2222 34.9526 27.5822 33.3846 27.5822ZM33.3846 25.2062C34.4886 25.2062 35.4726 24.9582 36.3366 24.4622C37.2006 23.9502 37.8726 23.2302 38.3526 22.3022C38.8486 21.3582 39.0966 20.2702 39.0966 19.0382C39.0966 17.8062 38.8486 16.7262 38.3526 15.7982C37.8726 14.8702 37.2006 14.1582 36.3366 13.6622C35.4726 13.1662 34.4886 12.9182 33.3846 12.9182C32.2806 12.9182 31.2966 13.1662 30.4326 13.6622C29.5686 14.1582 28.8886 14.8702 28.3926 15.7982C27.9126 16.7262 27.6726 17.8062 27.6726 19.0382C27.6726 20.2702 27.9126 21.3582 28.3926 22.3022C28.8886 23.2302 29.5686 23.9502 30.4326 24.4622C31.2966 24.9582 32.2806 25.2062 33.3846 25.2062ZM53.2609 27.4142L49.4209 20.7422H47.3329V27.4142H44.5969V10.7342H50.3569C51.6369 10.7342 52.7169 10.9582 53.5969 11.4062C54.4929 11.8542 55.1569 12.4542 55.5889 13.2062C56.0369 13.9582 56.2609 14.7982 56.2609 15.7262C56.2609 16.8142 55.9409 17.8062 55.3009 18.7022C54.6769 19.5822 53.7089 20.1822 52.3969 20.5022L56.5249 27.4142H53.2609ZM47.3329 18.5582H50.3569C51.3809 18.5582 52.1489 18.3022 52.6609 17.7902C53.1889 17.2782 53.4529 16.5902 53.4529 15.7262C53.4529 14.8622 53.1969 14.1902 52.6849 13.7102C52.1729 13.2142 51.3969 12.9662 50.3569 12.9662H47.3329V18.5582ZM68.9529 27.4142L62.4969 19.9502V27.4142H59.7609V10.7342H62.4969V18.3422L68.9769 10.7342H72.4089L65.1609 19.0862L72.5289 27.4142H68.9529Z" fill="#1C1C1C"/>
<path d="M114.092 10.7342L109.148 27.4142H106.052L102.548 14.7902L98.8283 27.4142L95.7563 27.4382L91.0283 10.7342H93.9323L97.3883 24.3182L101.132 10.7342H104.204L107.684 24.2462L111.164 10.7342H114.092ZM123.957 27.5822C122.405 27.5822 120.973 27.2222 119.661 26.5022C118.365 25.7662 117.333 24.7502 116.565 23.4542C115.813 22.1422 115.437 20.6702 115.437 19.0382C115.437 17.4062 115.813 15.9422 116.565 14.6462C117.333 13.3502 118.365 12.3422 119.661 11.6222C120.973 10.8862 122.405 10.5182 123.957 10.5182C125.525 10.5182 126.957 10.8862 128.253 11.6222C129.565 12.3422 130.597 13.3502 131.349 14.6462C132.101 15.9422 132.477 17.4062 132.477 19.0382C132.477 20.6702 132.101 22.1422 131.349 23.4542C130.597 24.7502 129.565 25.7662 128.253 26.5022C126.957 27.2222 125.525 27.5822 123.957 27.5822ZM123.957 25.2062C125.061 25.2062 126.045 24.9582 126.909 24.4622C127.773 23.9502 128.445 23.2302 128.925 22.3022C129.421 21.3582 129.669 20.2702 129.669 19.0382C129.669 17.8062 129.421 16.7262 128.925 15.7982C128.445 14.8702 127.773 14.1582 126.909 13.6622C126.045 13.1662 125.061 12.9182 123.957 12.9182C122.853 12.9182 121.869 13.1662 121.005 13.6622C120.141 14.1582 119.461 14.8702 118.965 15.7982C118.485 16.7262 118.245 17.8062 118.245 19.0382C118.245 20.2702 118.485 21.3582 118.965 22.3022C119.461 23.2302 120.141 23.9502 121.005 24.4622C121.869 24.9582 122.853 25.2062 123.957 25.2062ZM143.833 27.4142L139.993 20.7422H137.905V27.4142H135.169V10.7342H140.929C142.209 10.7342 143.289 10.9582 144.169 11.4062C145.065 11.8542 145.729 12.4542 146.161 13.2062C146.609 13.9582 146.833 14.7982 146.833 15.7262C146.833 16.8142 146.513 17.8062 145.873 18.7022C145.249 19.5822 144.281 20.1822 142.969 20.5022L147.097 27.4142H143.833ZM137.905 18.5582H140.929C141.953 18.5582 142.721 18.3022 143.233 17.7902C143.761 17.2782 144.025 16.5902 144.025 15.7262C144.025 14.8622 143.769 14.1902 143.257 13.7102C142.745 13.2142 141.969 12.9662 140.929 12.9662H137.905V18.5582ZM159.525 27.4142L153.069 19.9502V27.4142H150.333V10.7342H153.069V18.3422L159.549 10.7342H162.981L155.733 19.0862L163.101 27.4142H159.525Z" fill="#1C1C1C"/>
<path d="M204.665 10.7342L199.721 27.4142H196.625L193.121 14.7902L189.401 27.4142L186.329 27.4382L181.601 10.7342H184.505L187.961 24.3182L191.705 10.7342H194.777L198.257 24.2462L201.737 10.7342H204.665ZM214.529 27.5822C212.977 27.5822 211.545 27.2222 210.233 26.5022C208.937 25.7662 207.905 24.7502 207.137 23.4542C206.385 22.1422 206.009 20.6702 206.009 19.0382C206.009 17.4062 206.385 15.9422 207.137 14.6462C207.905 13.3502 208.937 12.3422 210.233 11.6222C211.545 10.8862 212.977 10.5182 214.529 10.5182C216.097 10.5182 217.529 10.8862 218.825 11.6222C220.137 12.3422 221.169 13.3502 221.921 14.6462C222.673 15.9422 223.049 17.4062 223.049 19.0382C223.049 20.6702 222.673 22.1422 221.921 23.4542C221.169 24.7502 220.137 25.7662 218.825 26.5022C217.529 27.2222 216.097 27.5822 214.529 27.5822ZM214.529 25.2062C215.633 25.2062 216.617 24.9582 217.481 24.4622C218.345 23.9502 219.017 23.2302 219.497 22.3022C219.993 21.3582 220.241 20.2702 220.241 19.0382C220.241 17.8062 219.993 16.7262 219.497 15.7982C219.017 14.8702 218.345 14.1582 217.481 13.6622C216.617 13.1662 215.633 12.9182 214.529 12.9182C213.425 12.9182 212.441 13.1662 211.577 13.6622C210.713 14.1582 210.033 14.8702 209.537 15.7982C209.057 16.7262 208.817 17.8062 208.817 19.0382C208.817 20.2702 209.057 21.3582 209.537 22.3022C210.033 23.2302 210.713 23.9502 211.577 24.4622C212.441 24.9582 213.425 25.2062 214.529 25.2062ZM234.405 27.4142L230.565 20.7422H228.477V27.4142H225.741V10.7342H231.501C232.781 10.7342 233.861 10.9582 234.741 11.4062C235.637 11.8542 236.301 12.4542 236.733 13.2062C237.181 13.9582 237.405 14.7982 237.405 15.7262C237.405 16.8142 237.085 17.8062 236.445 18.7022C235.821 19.5822 234.853 20.1822 233.541 20.5022L237.669 27.4142H234.405ZM228.477 18.5582H231.501C232.525 18.5582 233.293 18.3022 233.805 17.7902C234.333 17.2782 234.597 16.5902 234.597 15.7262C234.597 14.8622 234.341 14.1902 233.829 13.7102C233.317 13.2142 232.541 12.9662 231.501 12.9662H228.477V18.5582ZM250.097 27.4142L243.641 19.9502V27.4142H240.905V10.7342H243.641V18.3422L250.121 10.7342H253.553L246.305 19.0862L253.673 27.4142H250.097Z" fill="#1C1C1C"/>
<path d="M295.237 10.7342L290.293 27.4142H287.197L283.693 14.7902L279.973 27.4142L276.901 27.4382L272.173 10.7342H275.077L278.533 24.3182L282.277 10.7342H285.349L288.829 24.2462L292.309 10.7342H295.237ZM305.101 27.5822C303.549 27.5822 302.117 27.2222 300.805 26.5022C299.509 25.7662 298.477 24.7502 297.709 23.4542C296.957 22.1422 296.581 20.6702 296.581 19.0382C296.581 17.4062 296.957 15.9422 297.709 14.6462C298.477 13.3502 299.509 12.3422 300.805 11.6222C302.117 10.8862 303.549 10.5182 305.101 10.5182C306.669 10.5182 308.101 10.8862 309.397 11.6222C310.709 12.3422 311.741 13.3502 312.493 14.6462C313.245 15.9422 313.621 17.4062 313.621 19.0382C313.621 20.6702 313.245 22.1422 312.493 23.4542C311.741 24.7502 310.709 25.7662 309.397 26.5022C308.101 27.2222 306.669 27.5822 305.101 27.5822ZM305.101 25.2062C306.205 25.2062 307.189 24.9582 308.053 24.4622C308.917 23.9502 309.589 23.2302 310.069 22.3022C310.565 21.3582 310.813 20.2702 310.813 19.0382C310.813 17.8062 310.565 16.7262 310.069 15.7982C309.589 14.8702 308.917 14.1582 308.053 13.6622C307.189 13.1662 306.205 12.9182 305.101 12.9182C303.997 12.9182 303.013 13.1662 302.149 13.6622C301.285 14.1582 300.605 14.8702 300.109 15.7982C299.629 16.7262 299.389 17.8062 299.389 19.0382C299.389 20.2702 299.629 21.3582 300.109 22.3022C300.605 23.2302 301.285 23.9502 302.149 24.4622C303.013 24.9582 303.997 25.2062 305.101 25.2062ZM324.978 27.4142L321.138 20.7422H319.05V27.4142H316.314V10.7342H322.074C323.354 10.7342 324.434 10.9582 325.314 11.4062C326.21 11.8542 326.874 12.4542 327.306 13.2062C327.754 13.9582 327.978 14.7982 327.978 15.7262C327.978 16.8142 327.658 17.8062 327.018 18.7022C326.394 19.5822 325.426 20.1822 324.114 20.5022L328.242 27.4142H324.978ZM319.05 18.5582H322.074C323.098 18.5582 323.866 18.3022 324.378 17.7902C324.906 17.2782 325.17 16.5902 325.17 15.7262C325.17 14.8622 324.914 14.1902 324.402 13.7102C323.89 13.2142 323.114 12.9662 322.074 12.9662H319.05V18.5582ZM340.67 27.4142L334.214 19.9502V27.4142H331.478V10.7342H334.214V18.3422L340.694 10.7342H344.126L336.878 19.0862L344.246 27.4142H340.67Z" fill="#1C1C1C"/>
<path d="M385.809 10.7342L380.865 27.4142H377.769L374.265 14.7902L370.545 27.4142L367.473 27.4382L362.745 10.7342H365.649L369.105 24.3182L372.849 10.7342H375.921L379.401 24.2462L382.881 10.7342H385.809ZM395.674 27.5822C394.122 27.5822 392.69 27.2222 391.378 26.5022C390.082 25.7662 389.05 24.7502 388.282 23.4542C387.53 22.1422 387.154 20.6702 387.154 19.0382C387.154 17.4062 387.53 15.9422 388.282 14.6462C389.05 13.3502 390.082 12.3422 391.378 11.6222C392.69 10.8862 394.122 10.5182 395.674 10.5182C397.242 10.5182 398.674 10.8862 399.97 11.6222C401.282 12.3422 402.314 13.3502 403.066 14.6462C403.818 15.9422 404.194 17.4062 404.194 19.0382C404.194 20.6702 403.818 22.1422 403.066 23.4542C402.314 24.7502 401.282 25.7662 399.97 26.5022C398.674 27.2222 397.242 27.5822 395.674 27.5822ZM395.674 25.2062C396.778 25.2062 397.762 24.9582 398.626 24.4622C399.49 23.9502 400.162 23.2302 400.642 22.3022C401.138 21.3582 401.386 20.2702 401.386 19.0382C401.386 17.8062 401.138 16.7262 400.642 15.7982C400.162 14.8702 399.49 14.1582 398.626 13.6622C397.762 13.1662 396.778 12.9182 395.674 12.9182C394.57 12.9182 393.586 13.1662 392.722 13.6622C391.858 14.1582 391.178 14.8702 390.682 15.7982C390.202 16.7262 389.962 17.8062 389.962 19.0382C389.962 20.2702 390.202 21.3582 390.682 22.3022C391.178 23.2302 391.858 23.9502 392.722 24.4622C393.586 24.9582 394.57 25.2062 395.674 25.2062ZM415.55 27.4142L411.71 20.7422H409.622V27.4142H406.886V10.7342H412.646C413.926 10.7342 415.006 10.9582 415.886 11.4062C416.782 11.8542 417.446 12.4542 417.878 13.2062C418.326 13.9582 418.55 14.7982 418.55 15.7262C418.55 16.8142 418.23 17.8062 417.59 18.7022C416.966 19.5822 415.998 20.1822 414.686 20.5022L418.814 27.4142H415.55ZM409.622 18.5582H412.646C413.67 18.5582 414.438 18.3022 414.95 17.7902C415.478 17.2782 415.742 16.5902 415.742 15.7262C415.742 14.8622 415.486 14.1902 414.974 13.7102C414.462 13.2142 413.686 12.9662 412.646 12.9662H409.622V18.5582ZM431.242 27.4142L424.786 19.9502V27.4142H422.05V10.7342H424.786V18.3422L431.266 10.7342H434.698L427.45 19.0862L434.818 27.4142H431.242Z" fill="#1C1C1C"/>
<path d="M476.381 10.7342L471.437 27.4142H468.341L464.837 14.7902L461.117 27.4142L458.045 27.4382L453.317 10.7342H456.221L459.677 24.3182L463.421 10.7342H466.493L469.973 24.2462L473.453 10.7342H476.381ZM486.246 27.5822C484.694 27.5822 483.262 27.2222 481.95 26.5022C480.654 25.7662 479.622 24.7502 478.854 23.4542C478.102 22.1422 477.726 20.6702 477.726 19.0382C477.726 17.4062 478.102 15.9422 478.854 14.6462C479.622 13.3502 480.654 12.3422 481.95 11.6222C483.262 10.8862 484.694 10.5182 486.246 10.5182C487.814 10.5182 489.246 10.8862 490.542 11.6222C491.854 12.3422 492.886 13.3502 493.638 14.6462C494.39 15.9422 494.766 17.4062 494.766 19.0382C494.766 20.6702 494.39 22.1422 493.638 23.4542C492.886 24.7502 491.854 25.7662 490.542 26.5022C489.246 27.2222 487.814 27.5822 486.246 27.5822ZM486.246 25.2062C487.35 25.2062 488.334 24.9582 489.198 24.4622C490.062 23.9502 490.734 23.2302 491.214 22.3022C491.71 21.3582 491.958 20.2702 491.958 19.0382C491.958 17.8062 491.71 16.7262 491.214 15.7982C490.734 14.8702 490.062 14.1582 489.198 13.6622C488.334 13.1662 487.35 12.9182 486.246 12.9182C485.142 12.9182 484.158 13.1662 483.294 13.6622C482.43 14.1582 481.75 14.8702 481.254 15.7982C480.774 16.7262 480.534 17.8062 480.534 19.0382C480.534 20.2702 480.774 21.3582 481.254 22.3022C481.75 23.2302 482.43 23.9502 483.294 24.4622C484.158 24.9582 485.142 25.2062 486.246 25.2062ZM506.122 27.4142L502.282 20.7422H500.194V27.4142H497.458V10.7342H503.218C504.498 10.7342 505.578 10.9582 506.458 11.4062C507.354 11.8542 508.018 12.4542 508.45 13.2062C508.898 13.9582 509.122 14.7982 509.122 15.7262C509.122 16.8142 508.802 17.8062 508.162 18.7022C507.538 19.5822 506.57 20.1822 505.258 20.5022L509.386 27.4142H506.122ZM500.194 18.5582H503.218C504.242 18.5582 505.01 18.3022 505.522 17.7902C506.05 17.2782 506.314 16.5902 506.314 15.7262C506.314 14.8622 506.058 14.1902 505.546 13.7102C505.034 13.2142 504.258 12.9662 503.218 12.9662H500.194V18.5582ZM521.814 27.4142L515.358 19.9502V27.4142H512.622V10.7342H515.358V18.3422L521.838 10.7342H525.27L518.022 19.0862L525.39 27.4142H521.814Z" fill="#1C1C1C"/>
<path d="M566.954 10.7342L562.01 27.4142H558.914L555.41 14.7902L551.69 27.4142L548.618 27.4382L543.89 10.7342H546.794L550.25 24.3182L553.994 10.7342H557.066L560.546 24.2462L564.026 10.7342H566.954ZM576.818 27.5822C575.266 27.5822 573.834 27.2222 572.522 26.5022C571.226 25.7662 570.194 24.7502 569.426 23.4542C568.674 22.1422 568.298 20.6702 568.298 19.0382C568.298 17.4062 568.674 15.9422 569.426 14.6462C570.194 13.3502 571.226 12.3422 572.522 11.6222C573.834 10.8862 575.266 10.5182 576.818 10.5182C578.386 10.5182 579.818 10.8862 581.114 11.6222C582.426 12.3422 583.458 13.3502 584.21 14.6462C584.962 15.9422 585.338 17.4062 585.338 19.0382C585.338 20.6702 584.962 22.1422 584.21 23.4542C583.458 24.7502 582.426 25.7662 581.114 26.5022C579.818 27.2222 578.386 27.5822 576.818 27.5822ZM576.818 25.2062C577.922 25.2062 578.906 24.9582 579.77 24.4622C580.634 23.9502 581.306 23.2302 581.786 22.3022C582.282 21.3582 582.53 20.2702 582.53 19.0382C582.53 17.8062 582.282 16.7262 581.786 15.7982C581.306 14.8702 580.634 14.1582 579.77 13.6622C578.906 13.1662 577.922 12.9182 576.818 12.9182C575.714 12.9182 574.73 13.1662 573.866 13.6622C573.002 14.1582 572.322 14.8702 571.826 15.7982C571.346 16.7262 571.106 17.8062 571.106 19.0382C571.106 20.2702 571.346 21.3582 571.826 22.3022C572.322 23.2302 573.002 23.9502 573.866 24.4622C574.73 24.9582 575.714 25.2062 576.818 25.2062ZM596.694 27.4142L592.854 20.7422H590.766V27.4142H588.03V10.7342H593.79C595.07 10.7342 596.15 10.9582 597.03 11.4062C597.926 11.8542 598.59 12.4542 599.022 13.2062C599.47 13.9582 599.694 14.7982 599.694 15.7262C599.694 16.8142 599.374 17.8062 598.734 18.7022C598.11 19.5822 597.142 20.1822 595.83 20.5022L599.958 27.4142H596.694ZM590.766 18.5582H593.79C594.814 18.5582 595.582 18.3022 596.094 17.7902C596.622 17.2782 596.886 16.5902 596.886 15.7262C596.886 14.8622 596.63 14.1902 596.118 13.7102C595.606 13.2142 594.83 12.9662 593.79 12.9662H590.766V18.5582ZM612.387 27.4142L605.931 19.9502V27.4142H603.195V10.7342H605.931V18.3422L612.411 10.7342H615.843L608.595 19.0862L615.963 27.4142H612.387Z" fill="#1C1C1C"/>
<path d="M657.526 10.7342L652.582 27.4142H649.486L645.982 14.7902L642.262 27.4142L639.19 27.4382L634.462 10.7342H637.366L640.822 24.3182L644.566 10.7342H647.638L651.118 24.2462L654.598 10.7342H657.526ZM667.39 27.5822C665.838 27.5822 664.406 27.2222 663.094 26.5022C661.798 25.7662 660.766 24.7502 659.998 23.4542C659.246 22.1422 658.87 20.6702 658.87 19.0382C658.87 17.4062 659.246 15.9422 659.998 14.6462C660.766 13.3502 661.798 12.3422 663.094 11.6222C664.406 10.8862 665.838 10.5182 667.39 10.5182C668.958 10.5182 670.39 10.8862 671.686 11.6222C672.998 12.3422 674.03 13.3502 674.782 14.6462C675.534 15.9422 675.91 17.4062 675.91 19.0382C675.91 20.6702 675.534 22.1422 674.782 23.4542C674.03 24.7502 672.998 25.7662 671.686 26.5022C670.39 27.2222 668.958 27.5822 667.39 27.5822ZM667.39 25.2062C668.494 25.2062 669.478 24.9582 670.342 24.4622C671.206 23.9502 671.878 23.2302 672.358 22.3022C672.854 21.3582 673.102 20.2702 673.102 19.0382C673.102 17.8062 672.854 16.7262 672.358 15.7982C671.878 14.8702 671.206 14.1582 670.342 13.6622C669.478 13.1662 668.494 12.9182 667.39 12.9182C666.286 12.9182 665.302 13.1662 664.438 13.6622C663.574 14.1582 662.894 14.8702 662.398 15.7982C661.918 16.7262 661.678 17.8062 661.678 19.0382C661.678 20.2702 661.918 21.3582 662.398 22.3022C662.894 23.2302 663.574 23.9502 664.438 24.4622C665.302 24.9582 666.286 25.2062 667.39 25.2062ZM687.267 27.4142L683.427 20.7422H681.339V27.4142H678.603V10.7342H684.363C685.643 10.7342 686.723 10.9582 687.603 11.4062C688.499 11.8542 689.163 12.4542 689.595 13.2062C690.043 13.9582 690.267 14.7982 690.267 15.7262C690.267 16.8142 689.947 17.8062 689.307 18.7022C688.683 19.5822 687.715 20.1822 686.403 20.5022L690.531 27.4142H687.267ZM681.339 18.5582H684.363C685.387 18.5582 686.155 18.3022 686.667 17.7902C687.195 17.2782 687.459 16.5902 687.459 15.7262C687.459 14.8622 687.203 14.1902 686.691 13.7102C686.179 13.2142 685.403 12.9662 684.363 12.9662H681.339V18.5582ZM702.959 27.4142L696.503 19.9502V27.4142H693.767V10.7342H696.503V18.3422L702.983 10.7342H706.415L699.167 19.0862L706.535 27.4142H702.959Z" fill="#1C1C1C"/>
<path d="M748.098 10.7342L743.154 27.4142H740.058L736.554 14.7902L732.834 27.4142L729.762 27.4382L725.034 10.7342H727.938L731.394 24.3182L735.138 10.7342H738.21L741.69 24.2462L745.17 10.7342H748.098ZM757.963 27.5822C756.411 27.5822 754.979 27.2222 753.667 26.5022C752.371 25.7662 751.339 24.7502 750.571 23.4542C749.819 22.1422 749.443 20.6702 749.443 19.0382C749.443 17.4062 749.819 15.9422 750.571 14.6462C751.339 13.3502 752.371 12.3422 753.667 11.6222C754.979 10.8862 756.411 10.5182 757.963 10.5182C759.531 10.5182 760.963 10.8862 762.259 11.6222C763.571 12.3422 764.603 13.3502 765.355 14.6462C766.107 15.9422 766.483 17.4062 766.483 19.0382C766.483 20.6702 766.107 22.1422 765.355 23.4542C764.603 24.7502 763.571 25.7662 762.259 26.5022C760.963 27.2222 759.531 27.5822 757.963 27.5822ZM757.963 25.2062C759.067 25.2062 760.051 24.9582 760.915 24.4622C761.779 23.9502 762.451 23.2302 762.931 22.3022C763.427 21.3582 763.675 20.2702 763.675 19.0382C763.675 17.8062 763.427 16.7262 762.931 15.7982C762.451 14.8702 761.779 14.1582 760.915 13.6622C760.051 13.1662 759.067 12.9182 757.963 12.9182C756.859 12.9182 755.875 13.1662 755.011 13.6622C754.147 14.1582 753.467 14.8702 752.971 15.7982C752.491 16.7262 752.251 17.8062 752.251 19.0382C752.251 20.2702 752.491 21.3582 752.971 22.3022C753.467 23.2302 754.147 23.9502 755.011 24.4622C755.875 24.9582 756.859 25.2062 757.963 25.2062ZM777.839 27.4142L773.999 20.7422H771.911V27.4142H769.175V10.7342H774.935C776.215 10.7342 777.295 10.9582 778.175 11.4062C779.071 11.8542 779.735 12.4542 780.167 13.2062C780.615 13.9582 780.839 14.7982 780.839 15.7262C780.839 16.8142 780.519 17.8062 779.879 18.7022C779.255 19.5822 778.287 20.1822 776.975 20.5022L781.103 27.4142H777.839ZM771.911 18.5582H774.935C775.959 18.5582 776.727 18.3022 777.239 17.7902C777.767 17.2782 778.031 16.5902 778.031 15.7262C778.031 14.8622 777.775 14.1902 777.263 13.7102C776.751 13.2142 775.975 12.9662 774.935 12.9662H771.911V18.5582ZM793.531 27.4142L787.075 19.9502V27.4142H784.339V10.7342H787.075V18.3422L793.555 10.7342H796.987L789.739 19.0862L797.107 27.4142H793.531Z" fill="#1C1C1C"/>
<path d="M838.67 10.7342L833.726 27.4142H830.63L827.126 14.7902L823.406 27.4142L820.334 27.4382L815.606 10.7342H818.51L821.966 24.3182L825.71 10.7342H828.782L832.262 24.2462L835.742 10.7342H838.67ZM848.535 27.5822C846.983 27.5822 845.551 27.2222 844.239 26.5022C842.943 25.7662 841.911 24.7502 841.143 23.4542C840.391 22.1422 840.015 20.6702 840.015 19.0382C840.015 17.4062 840.391 15.9422 841.143 14.6462C841.911 13.3502 842.943 12.3422 844.239 11.6222C845.551 10.8862 846.983 10.5182 848.535 10.5182C850.103 10.5182 851.535 10.8862 852.831 11.6222C854.143 12.3422 855.175 13.3502 855.927 14.6462C856.679 15.9422 857.055 17.4062 857.055 19.0382C857.055 20.6702 856.679 22.1422 855.927 23.4542C855.175 24.7502 854.143 25.7662 852.831 26.5022C851.535 27.2222 850.103 27.5822 848.535 27.5822ZM848.535 25.2062C849.639 25.2062 850.623 24.9582 851.487 24.4622C852.351 23.9502 853.023 23.2302 853.503 22.3022C853.999 21.3582 854.247 20.2702 854.247 19.0382C854.247 17.8062 853.999 16.7262 853.503 15.7982C853.023 14.8702 852.351 14.1582 851.487 13.6622C850.623 13.1662 849.639 12.9182 848.535 12.9182C847.431 12.9182 846.447 13.1662 845.583 13.6622C844.719 14.1582 844.039 14.8702 843.543 15.7982C843.063 16.7262 842.823 17.8062 842.823 19.0382C842.823 20.2702 843.063 21.3582 843.543 22.3022C844.039 23.2302 844.719 23.9502 845.583 24.4622C846.447 24.9582 847.431 25.2062 848.535 25.2062ZM868.411 27.4142L864.571 20.7422H862.483V27.4142H859.747V10.7342H865.507C866.787 10.7342 867.867 10.9582 868.747 11.4062C869.643 11.8542 870.307 12.4542 870.739 13.2062C871.187 13.9582 871.411 14.7982 871.411 15.7262C871.411 16.8142 871.091 17.8062 870.451 18.7022C869.827 19.5822 868.859 20.1822 867.547 20.5022L871.675 27.4142H868.411ZM862.483 18.5582H865.507C866.531 18.5582 867.299 18.3022 867.811 17.7902C868.339 17.2782 868.603 16.5902 868.603 15.7262C868.603 14.8622 868.347 14.1902 867.835 13.7102C867.323 13.2142 866.547 12.9662 865.507 12.9662H862.483V18.5582ZM884.103 27.4142L877.647 19.9502V27.4142H874.911V10.7342H877.647V18.3422L884.127 10.7342H887.559L880.311 19.0862L887.679 27.4142H884.103Z" fill="#1C1C1C"/>
<path d="M929.243 10.7342L924.299 27.4142H921.203L917.699 14.7902L913.979 27.4142L910.907 27.4382L906.179 10.7342H909.083L912.539 24.3182L916.283 10.7342H919.355L922.835 24.2462L926.315 10.7342H929.243ZM939.108 27.5822C937.556 27.5822 936.124 27.2222 934.812 26.5022C933.516 25.7662 932.484 24.7502 931.716 23.4542C930.964 22.1422 930.588 20.6702 930.588 19.0382C930.588 17.4062 930.964 15.9422 931.716 14.6462C932.484 13.3502 933.516 12.3422 934.812 11.6222C936.124 10.8862 937.556 10.5182 939.108 10.5182C940.676 10.5182 942.108 10.8862 943.404 11.6222C944.716 12.3422 945.748 13.3502 946.5 14.6462C947.252 15.9422 947.628 17.4062 947.628 19.0382C947.628 20.6702 947.252 22.1422 946.5 23.4542C945.748 24.7502 944.716 25.7662 943.404 26.5022C942.108 27.2222 940.676 27.5822 939.108 27.5822ZM939.108 25.2062C940.212 25.2062 941.196 24.9582 942.06 24.4622C942.924 23.9502 943.596 23.2302 944.076 22.3022C944.572 21.3582 944.82 20.2702 944.82 19.0382C944.82 17.8062 944.572 16.7262 944.076 15.7982C943.596 14.8702 942.924 14.1582 942.06 13.6622C941.196 13.1662 940.212 12.9182 939.108 12.9182C938.004 12.9182 937.02 13.1662 936.156 13.6622C935.292 14.1582 934.612 14.8702 934.116 15.7982C933.636 16.7262 933.396 17.8062 933.396 19.0382C933.396 20.2702 933.636 21.3582 934.116 22.3022C934.612 23.2302 935.292 23.9502 936.156 24.4622C937.02 24.9582 938.004 25.2062 939.108 25.2062ZM958.984 27.4142L955.144 20.7422H953.056V27.4142H950.32V10.7342H956.08C957.36 10.7342 958.44 10.9582 959.32 11.4062C960.216 11.8542 960.88 12.4542 961.312 13.2062C961.76 13.9582 961.984 14.7982 961.984 15.7262C961.984 16.8142 961.664 17.8062 961.024 18.7022C960.4 19.5822 959.432 20.1822 958.12 20.5022L962.248 27.4142H958.984ZM953.056 18.5582H956.08C957.104 18.5582 957.872 18.3022 958.384 17.7902C958.912 17.2782 959.176 16.5902 959.176 15.7262C959.176 14.8622 958.92 14.1902 958.408 13.7102C957.896 13.2142 957.12 12.9662 956.08 12.9662H953.056V18.5582ZM974.676 27.4142L968.22 19.9502V27.4142H965.484V10.7342H968.22V18.3422L974.7 10.7342H978.132L970.884 19.0862L978.252 27.4142H974.676Z" fill="#1C1C1C"/>
<path d="M1019.81 10.7342L1014.87 27.4142H1011.77L1008.27 14.7902L1004.55 27.4142L1001.48 27.4382L996.751 10.7342H999.655L1003.11 24.3182L1006.85 10.7342H1009.93L1013.41 24.2462L1016.89 10.7342H1019.81ZM1029.68 27.5822C1028.13 27.5822 1026.7 27.2222 1025.38 26.5022C1024.09 25.7662 1023.06 24.7502 1022.29 23.4542C1021.54 22.1422 1021.16 20.6702 1021.16 19.0382C1021.16 17.4062 1021.54 15.9422 1022.29 14.6462C1023.06 13.3502 1024.09 12.3422 1025.38 11.6222C1026.7 10.8862 1028.13 10.5182 1029.68 10.5182C1031.25 10.5182 1032.68 10.8862 1033.98 11.6222C1035.29 12.3422 1036.32 13.3502 1037.07 14.6462C1037.82 15.9422 1038.2 17.4062 1038.2 19.0382C1038.2 20.6702 1037.82 22.1422 1037.07 23.4542C1036.32 24.7502 1035.29 25.7662 1033.98 26.5022C1032.68 27.2222 1031.25 27.5822 1029.68 27.5822ZM1029.68 25.2062C1030.78 25.2062 1031.77 24.9582 1032.63 24.4622C1033.5 23.9502 1034.17 23.2302 1034.65 22.3022C1035.14 21.3582 1035.39 20.2702 1035.39 19.0382C1035.39 17.8062 1035.14 16.7262 1034.65 15.7982C1034.17 14.8702 1033.5 14.1582 1032.63 13.6622C1031.77 13.1662 1030.78 12.9182 1029.68 12.9182C1028.58 12.9182 1027.59 13.1662 1026.73 13.6622C1025.86 14.1582 1025.18 14.8702 1024.69 15.7982C1024.21 16.7262 1023.97 17.8062 1023.97 19.0382C1023.97 20.2702 1024.21 21.3582 1024.69 22.3022C1025.18 23.2302 1025.86 23.9502 1026.73 24.4622C1027.59 24.9582 1028.58 25.2062 1029.68 25.2062ZM1049.56 27.4142L1045.72 20.7422H1043.63V27.4142H1040.89V10.7342H1046.65C1047.93 10.7342 1049.01 10.9582 1049.89 11.4062C1050.79 11.8542 1051.45 12.4542 1051.88 13.2062C1052.33 13.9582 1052.56 14.7982 1052.56 15.7262C1052.56 16.8142 1052.24 17.8062 1051.6 18.7022C1050.97 19.5822 1050 20.1822 1048.69 20.5022L1052.82 27.4142H1049.56ZM1043.63 18.5582H1046.65C1047.68 18.5582 1048.44 18.3022 1048.96 17.7902C1049.48 17.2782 1049.75 16.5902 1049.75 15.7262C1049.75 14.8622 1049.49 14.1902 1048.98 13.7102C1048.47 13.2142 1047.69 12.9662 1046.65 12.9662H1043.63V18.5582ZM1065.25 27.4142L1058.79 19.9502V27.4142H1056.06V10.7342H1058.79V18.3422L1065.27 10.7342H1068.7L1061.46 19.0862L1068.82 27.4142H1065.25Z" fill="#1C1C1C"/>
<path d="M1110.39 10.7342L1105.44 27.4142H1102.35L1098.84 14.7902L1095.12 27.4142L1092.05 27.4382L1087.32 10.7342H1090.23L1093.68 24.3182L1097.43 10.7342H1100.5L1103.98 24.2462L1107.46 10.7342H1110.39ZM1120.25 27.5822C1118.7 27.5822 1117.27 27.2222 1115.96 26.5022C1114.66 25.7662 1113.63 24.7502 1112.86 23.4542C1112.11 22.1422 1111.73 20.6702 1111.73 19.0382C1111.73 17.4062 1112.11 15.9422 1112.86 14.6462C1113.63 13.3502 1114.66 12.3422 1115.96 11.6222C1117.27 10.8862 1118.7 10.5182 1120.25 10.5182C1121.82 10.5182 1123.25 10.8862 1124.55 11.6222C1125.86 12.3422 1126.89 13.3502 1127.64 14.6462C1128.4 15.9422 1128.77 17.4062 1128.77 19.0382C1128.77 20.6702 1128.4 22.1422 1127.64 23.4542C1126.89 24.7502 1125.86 25.7662 1124.55 26.5022C1123.25 27.2222 1121.82 27.5822 1120.25 27.5822ZM1120.25 25.2062C1121.36 25.2062 1122.34 24.9582 1123.2 24.4622C1124.07 23.9502 1124.74 23.2302 1125.22 22.3022C1125.72 21.3582 1125.96 20.2702 1125.96 19.0382C1125.96 17.8062 1125.72 16.7262 1125.22 15.7982C1124.74 14.8702 1124.07 14.1582 1123.2 13.6622C1122.34 13.1662 1121.36 12.9182 1120.25 12.9182C1119.15 12.9182 1118.16 13.1662 1117.3 13.6622C1116.44 14.1582 1115.76 14.8702 1115.26 15.7982C1114.78 16.7262 1114.54 17.8062 1114.54 19.0382C1114.54 20.2702 1114.78 21.3582 1115.26 22.3022C1115.76 23.2302 1116.44 23.9502 1117.3 24.4622C1118.16 24.9582 1119.15 25.2062 1120.25 25.2062ZM1140.13 27.4142L1136.29 20.7422H1134.2V27.4142H1131.46V10.7342H1137.22C1138.5 10.7342 1139.58 10.9582 1140.46 11.4062C1141.36 11.8542 1142.02 12.4542 1142.46 13.2062C1142.9 13.9582 1143.13 14.7982 1143.13 15.7262C1143.13 16.8142 1142.81 17.8062 1142.17 18.7022C1141.54 19.5822 1140.58 20.1822 1139.26 20.5022L1143.39 27.4142H1140.13ZM1134.2 18.5582H1137.22C1138.25 18.5582 1139.02 18.3022 1139.53 17.7902C1140.06 17.2782 1140.32 16.5902 1140.32 15.7262C1140.32 14.8622 1140.06 14.1902 1139.55 13.7102C1139.04 13.2142 1138.26 12.9662 1137.22 12.9662H1134.2V18.5582ZM1155.82 27.4142L1149.36 19.9502V27.4142H1146.63V10.7342H1149.36V18.3422L1155.84 10.7342H1159.28L1152.03 19.0862L1159.4 27.4142H1155.82Z" fill="#1C1C1C"/>
<path d="M1200.96 10.7342L1196.02 27.4142H1192.92L1189.42 14.7902L1185.7 27.4142L1182.62 27.4382L1177.9 10.7342H1180.8L1184.26 24.3182L1188 10.7342H1191.07L1194.55 24.2462L1198.03 10.7342H1200.96ZM1210.82 27.5822C1209.27 27.5822 1207.84 27.2222 1206.53 26.5022C1205.23 25.7662 1204.2 24.7502 1203.43 23.4542C1202.68 22.1422 1202.3 20.6702 1202.3 19.0382C1202.3 17.4062 1202.68 15.9422 1203.43 14.6462C1204.2 13.3502 1205.23 12.3422 1206.53 11.6222C1207.84 10.8862 1209.27 10.5182 1210.82 10.5182C1212.39 10.5182 1213.82 10.8862 1215.12 11.6222C1216.43 12.3422 1217.46 13.3502 1218.22 14.6462C1218.97 15.9422 1219.34 17.4062 1219.34 19.0382C1219.34 20.6702 1218.97 22.1422 1218.22 23.4542C1217.46 24.7502 1216.43 25.7662 1215.12 26.5022C1213.82 27.2222 1212.39 27.5822 1210.82 27.5822ZM1210.82 25.2062C1211.93 25.2062 1212.91 24.9582 1213.78 24.4622C1214.64 23.9502 1215.31 23.2302 1215.79 22.3022C1216.29 21.3582 1216.54 20.2702 1216.54 19.0382C1216.54 17.8062 1216.29 16.7262 1215.79 15.7982C1215.31 14.8702 1214.64 14.1582 1213.78 13.6622C1212.91 13.1662 1211.93 12.9182 1210.82 12.9182C1209.72 12.9182 1208.74 13.1662 1207.87 13.6622C1207.01 14.1582 1206.33 14.8702 1205.83 15.7982C1205.35 16.7262 1205.11 17.8062 1205.11 19.0382C1205.11 20.2702 1205.35 21.3582 1205.83 22.3022C1206.33 23.2302 1207.01 23.9502 1207.87 24.4622C1208.74 24.9582 1209.72 25.2062 1210.82 25.2062ZM1230.7 27.4142L1226.86 20.7422H1224.77V27.4142H1222.04V10.7342H1227.8C1229.08 10.7342 1230.16 10.9582 1231.04 11.4062C1231.93 11.8542 1232.6 12.4542 1233.03 13.2062C1233.48 13.9582 1233.7 14.7982 1233.7 15.7262C1233.7 16.8142 1233.38 17.8062 1232.74 18.7022C1232.12 19.5822 1231.15 20.1822 1229.84 20.5022L1233.96 27.4142H1230.7ZM1224.77 18.5582H1227.8C1228.82 18.5582 1229.59 18.3022 1230.1 17.7902C1230.63 17.2782 1230.89 16.5902 1230.89 15.7262C1230.89 14.8622 1230.64 14.1902 1230.12 13.7102C1229.61 13.2142 1228.84 12.9662 1227.8 12.9662H1224.77V18.5582ZM1246.39 27.4142L1239.94 19.9502V27.4142H1237.2V10.7342H1239.94V18.3422L1246.42 10.7342H1249.85L1242.6 19.0862L1249.97 27.4142H1246.39Z" fill="#1C1C1C"/>
<path d="M1291.53 10.7342L1286.59 27.4142H1283.49L1279.99 14.7902L1276.27 27.4142L1273.2 27.4382L1268.47 10.7342H1271.37L1274.83 24.3182L1278.57 10.7342H1281.64L1285.12 24.2462L1288.6 10.7342H1291.53ZM1301.4 27.5822C1299.84 27.5822 1298.41 27.2222 1297.1 26.5022C1295.8 25.7662 1294.77 24.7502 1294 23.4542C1293.25 22.1422 1292.88 20.6702 1292.88 19.0382C1292.88 17.4062 1293.25 15.9422 1294 14.6462C1294.77 13.3502 1295.8 12.3422 1297.1 11.6222C1298.41 10.8862 1299.84 10.5182 1301.4 10.5182C1302.96 10.5182 1304.4 10.8862 1305.69 11.6222C1307 12.3422 1308.04 13.3502 1308.79 14.6462C1309.54 15.9422 1309.92 17.4062 1309.92 19.0382C1309.92 20.6702 1309.54 22.1422 1308.79 23.4542C1308.04 24.7502 1307 25.7662 1305.69 26.5022C1304.4 27.2222 1302.96 27.5822 1301.4 27.5822ZM1301.4 25.2062C1302.5 25.2062 1303.48 24.9582 1304.35 24.4622C1305.21 23.9502 1305.88 23.2302 1306.36 22.3022C1306.86 21.3582 1307.11 20.2702 1307.11 19.0382C1307.11 17.8062 1306.86 16.7262 1306.36 15.7982C1305.88 14.8702 1305.21 14.1582 1304.35 13.6622C1303.48 13.1662 1302.5 12.9182 1301.4 12.9182C1300.29 12.9182 1299.31 13.1662 1298.44 13.6622C1297.58 14.1582 1296.9 14.8702 1296.4 15.7982C1295.92 16.7262 1295.68 17.8062 1295.68 19.0382C1295.68 20.2702 1295.92 21.3582 1296.4 22.3022C1296.9 23.2302 1297.58 23.9502 1298.44 24.4622C1299.31 24.9582 1300.29 25.2062 1301.4 25.2062ZM1321.27 27.4142L1317.43 20.7422H1315.35V27.4142H1312.61V10.7342H1318.37C1319.65 10.7342 1320.73 10.9582 1321.61 11.4062C1322.51 11.8542 1323.17 12.4542 1323.6 13.2062C1324.05 13.9582 1324.27 14.7982 1324.27 15.7262C1324.27 16.8142 1323.95 17.8062 1323.31 18.7022C1322.69 19.5822 1321.72 20.1822 1320.41 20.5022L1324.54 27.4142H1321.27ZM1315.35 18.5582H1318.37C1319.39 18.5582 1320.16 18.3022 1320.67 17.7902C1321.2 17.2782 1321.47 16.5902 1321.47 15.7262C1321.47 14.8622 1321.21 14.1902 1320.7 13.7102C1320.19 13.2142 1319.41 12.9662 1318.37 12.9662H1315.35V18.5582ZM1336.97 27.4142L1330.51 19.9502V27.4142H1327.77V10.7342H1330.51V18.3422L1336.99 10.7342H1340.42L1333.17 19.0862L1340.54 27.4142H1336.97Z" fill="#1C1C1C"/>
<path d="M1382.1 10.7342L1377.16 27.4142H1374.06L1370.56 14.7902L1366.84 27.4142L1363.77 27.4382L1359.04 10.7342H1361.94L1365.4 24.3182L1369.14 10.7342H1372.22L1375.7 24.2462L1379.18 10.7342H1382.1ZM1391.97 27.5822C1390.42 27.5822 1388.99 27.2222 1387.67 26.5022C1386.38 25.7662 1385.35 24.7502 1384.58 23.4542C1383.83 22.1422 1383.45 20.6702 1383.45 19.0382C1383.45 17.4062 1383.83 15.9422 1384.58 14.6462C1385.35 13.3502 1386.38 12.3422 1387.67 11.6222C1388.99 10.8862 1390.42 10.5182 1391.97 10.5182C1393.54 10.5182 1394.97 10.8862 1396.27 11.6222C1397.58 12.3422 1398.61 13.3502 1399.36 14.6462C1400.11 15.9422 1400.49 17.4062 1400.49 19.0382C1400.49 20.6702 1400.11 22.1422 1399.36 23.4542C1398.61 24.7502 1397.58 25.7662 1396.27 26.5022C1394.97 27.2222 1393.54 27.5822 1391.97 27.5822ZM1391.97 25.2062C1393.07 25.2062 1394.06 24.9582 1394.92 24.4622C1395.79 23.9502 1396.46 23.2302 1396.94 22.3022C1397.43 21.3582 1397.68 20.2702 1397.68 19.0382C1397.68 17.8062 1397.43 16.7262 1396.94 15.7982C1396.46 14.8702 1395.79 14.1582 1394.92 13.6622C1394.06 13.1662 1393.07 12.9182 1391.97 12.9182C1390.87 12.9182 1389.88 13.1662 1389.02 13.6622C1388.15 14.1582 1387.47 14.8702 1386.98 15.7982C1386.5 16.7262 1386.26 17.8062 1386.26 19.0382C1386.26 20.2702 1386.5 21.3582 1386.98 22.3022C1387.47 23.2302 1388.15 23.9502 1389.02 24.4622C1389.88 24.9582 1390.87 25.2062 1391.97 25.2062ZM1411.85 27.4142L1408.01 20.7422H1405.92V27.4142H1403.18V10.7342H1408.94C1410.22 10.7342 1411.3 10.9582 1412.18 11.4062C1413.08 11.8542 1413.74 12.4542 1414.17 13.2062C1414.62 13.9582 1414.85 14.7982 1414.85 15.7262C1414.85 16.8142 1414.53 17.8062 1413.89 18.7022C1413.26 19.5822 1412.29 20.1822 1410.98 20.5022L1415.11 27.4142H1411.85ZM1405.92 18.5582H1408.94C1409.97 18.5582 1410.73 18.3022 1411.25 17.7902C1411.77 17.2782 1412.04 16.5902 1412.04 15.7262C1412.04 14.8622 1411.78 14.1902 1411.27 13.7102C1410.76 13.2142 1409.98 12.9662 1408.94 12.9662H1405.92V18.5582ZM1427.54 27.4142L1421.08 19.9502V27.4142H1418.35V10.7342H1421.08V18.3422L1427.56 10.7342H1430.99L1423.75 19.0862L1431.11 27.4142H1427.54Z" fill="#1C1C1C"/>
<path d="M1472.68 10.7342L1467.73 27.4142H1464.64L1461.13 14.7902L1457.41 27.4142L1454.34 27.4382L1449.61 10.7342H1452.52L1455.97 24.3182L1459.72 10.7342H1462.79L1466.27 24.2462L1469.75 10.7342H1472.68ZM1482.54 27.5822C1480.99 27.5822 1479.56 27.2222 1478.25 26.5022C1476.95 25.7662 1475.92 24.7502 1475.15 23.4542C1474.4 22.1422 1474.02 20.6702 1474.02 19.0382C1474.02 17.4062 1474.4 15.9422 1475.15 14.6462C1475.92 13.3502 1476.95 12.3422 1478.25 11.6222C1479.56 10.8862 1480.99 10.5182 1482.54 10.5182C1484.11 10.5182 1485.54 10.8862 1486.84 11.6222C1488.15 12.3422 1489.18 13.3502 1489.93 14.6462C1490.69 15.9422 1491.06 17.4062 1491.06 19.0382C1491.06 20.6702 1490.69 22.1422 1489.93 23.4542C1489.18 24.7502 1488.15 25.7662 1486.84 26.5022C1485.54 27.2222 1484.11 27.5822 1482.54 27.5822ZM1482.54 25.2062C1483.65 25.2062 1484.63 24.9582 1485.49 24.4622C1486.36 23.9502 1487.03 23.2302 1487.51 22.3022C1488.01 21.3582 1488.25 20.2702 1488.25 19.0382C1488.25 17.8062 1488.01 16.7262 1487.51 15.7982C1487.03 14.8702 1486.36 14.1582 1485.49 13.6622C1484.63 13.1662 1483.65 12.9182 1482.54 12.9182C1481.44 12.9182 1480.45 13.1662 1479.59 13.6622C1478.73 14.1582 1478.05 14.8702 1477.55 15.7982C1477.07 16.7262 1476.83 17.8062 1476.83 19.0382C1476.83 20.2702 1477.07 21.3582 1477.55 22.3022C1478.05 23.2302 1478.73 23.9502 1479.59 24.4622C1480.45 24.9582 1481.44 25.2062 1482.54 25.2062ZM1502.42 27.4142L1498.58 20.7422H1496.49V27.4142H1493.75V10.7342H1499.51C1500.79 10.7342 1501.87 10.9582 1502.75 11.4062C1503.65 11.8542 1504.31 12.4542 1504.75 13.2062C1505.19 13.9582 1505.42 14.7982 1505.42 15.7262C1505.42 16.8142 1505.1 17.8062 1504.46 18.7022C1503.83 19.5822 1502.87 20.1822 1501.55 20.5022L1505.68 27.4142H1502.42ZM1496.49 18.5582H1499.51C1500.54 18.5582 1501.31 18.3022 1501.82 17.7902C1502.35 17.2782 1502.61 16.5902 1502.61 15.7262C1502.61 14.8622 1502.35 14.1902 1501.84 13.7102C1501.33 13.2142 1500.55 12.9662 1499.51 12.9662H1496.49V18.5582ZM1518.11 27.4142L1511.65 19.9502V27.4142H1508.92V10.7342H1511.65V18.3422L1518.13 10.7342H1521.57L1514.32 19.0862L1521.69 27.4142H1518.11Z" fill="#1C1C1C"/>
<path d="M1563.25 10.7342L1558.31 27.4142H1555.21L1551.71 14.7902L1547.99 27.4142L1544.91 27.4382L1540.19 10.7342H1543.09L1546.55 24.3182L1550.29 10.7342H1553.36L1556.84 24.2462L1560.32 10.7342H1563.25ZM1573.11 27.5822C1571.56 27.5822 1570.13 27.2222 1568.82 26.5022C1567.52 25.7662 1566.49 24.7502 1565.72 23.4542C1564.97 22.1422 1564.59 20.6702 1564.59 19.0382C1564.59 17.4062 1564.97 15.9422 1565.72 14.6462C1566.49 13.3502 1567.52 12.3422 1568.82 11.6222C1570.13 10.8862 1571.56 10.5182 1573.11 10.5182C1574.68 10.5182 1576.11 10.8862 1577.41 11.6222C1578.72 12.3422 1579.75 13.3502 1580.51 14.6462C1581.26 15.9422 1581.63 17.4062 1581.63 19.0382C1581.63 20.6702 1581.26 22.1422 1580.51 23.4542C1579.75 24.7502 1578.72 25.7662 1577.41 26.5022C1576.11 27.2222 1574.68 27.5822 1573.11 27.5822ZM1573.11 25.2062C1574.22 25.2062 1575.2 24.9582 1576.07 24.4622C1576.93 23.9502 1577.6 23.2302 1578.08 22.3022C1578.58 21.3582 1578.83 20.2702 1578.83 19.0382C1578.83 17.8062 1578.58 16.7262 1578.08 15.7982C1577.6 14.8702 1576.93 14.1582 1576.07 13.6622C1575.2 13.1662 1574.22 12.9182 1573.11 12.9182C1572.01 12.9182 1571.03 13.1662 1570.16 13.6622C1569.3 14.1582 1568.62 14.8702 1568.12 15.7982C1567.64 16.7262 1567.4 17.8062 1567.4 19.0382C1567.4 20.2702 1567.64 21.3582 1568.12 22.3022C1568.62 23.2302 1569.3 23.9502 1570.16 24.4622C1571.03 24.9582 1572.01 25.2062 1573.11 25.2062ZM1592.99 27.4142L1589.15 20.7422H1587.06V27.4142H1584.33V10.7342H1590.09C1591.37 10.7342 1592.45 10.9582 1593.33 11.4062C1594.22 11.8542 1594.89 12.4542 1595.32 13.2062C1595.77 13.9582 1595.99 14.7982 1595.99 15.7262C1595.99 16.8142 1595.67 17.8062 1595.03 18.7022C1594.41 19.5822 1593.44 20.1822 1592.13 20.5022L1596.25 27.4142H1592.99ZM1587.06 18.5582H1590.09C1591.11 18.5582 1591.88 18.3022 1592.39 17.7902C1592.92 17.2782 1593.18 16.5902 1593.18 15.7262C1593.18 14.8622 1592.93 14.1902 1592.41 13.7102C1591.9 13.2142 1591.13 12.9662 1590.09 12.9662H1587.06V18.5582ZM1608.68 27.4142L1602.23 19.9502V27.4142H1599.49V10.7342H1602.23V18.3422L1608.71 10.7342H1612.14L1604.89 19.0862L1612.26 27.4142H1608.68Z" fill="#1C1C1C"/>
<path d="M1653.82 10.7342L1648.88 27.4142H1645.78L1642.28 14.7902L1638.56 27.4142L1635.49 27.4382L1630.76 10.7342H1633.66L1637.12 24.3182L1640.86 10.7342H1643.93L1647.41 24.2462L1650.89 10.7342H1653.82ZM1663.69 27.5822C1662.13 27.5822 1660.7 27.2222 1659.39 26.5022C1658.09 25.7662 1657.06 24.7502 1656.29 23.4542C1655.54 22.1422 1655.17 20.6702 1655.17 19.0382C1655.17 17.4062 1655.54 15.9422 1656.29 14.6462C1657.06 13.3502 1658.09 12.3422 1659.39 11.6222C1660.7 10.8862 1662.13 10.5182 1663.69 10.5182C1665.25 10.5182 1666.69 10.8862 1667.98 11.6222C1669.29 12.3422 1670.33 13.3502 1671.08 14.6462C1671.83 15.9422 1672.21 17.4062 1672.21 19.0382C1672.21 20.6702 1671.83 22.1422 1671.08 23.4542C1670.33 24.7502 1669.29 25.7662 1667.98 26.5022C1666.69 27.2222 1665.25 27.5822 1663.69 27.5822ZM1663.69 25.2062C1664.79 25.2062 1665.77 24.9582 1666.64 24.4622C1667.5 23.9502 1668.17 23.2302 1668.65 22.3022C1669.15 21.3582 1669.4 20.2702 1669.4 19.0382C1669.4 17.8062 1669.15 16.7262 1668.65 15.7982C1668.17 14.8702 1667.5 14.1582 1666.64 13.6622C1665.77 13.1662 1664.79 12.9182 1663.69 12.9182C1662.58 12.9182 1661.6 13.1662 1660.73 13.6622C1659.87 14.1582 1659.19 14.8702 1658.69 15.7982C1658.21 16.7262 1657.97 17.8062 1657.97 19.0382C1657.97 20.2702 1658.21 21.3582 1658.69 22.3022C1659.19 23.2302 1659.87 23.9502 1660.73 24.4622C1661.6 24.9582 1662.58 25.2062 1663.69 25.2062ZM1683.56 27.4142L1679.72 20.7422H1677.63V27.4142H1674.9V10.7342H1680.66C1681.94 10.7342 1683.02 10.9582 1683.9 11.4062C1684.79 11.8542 1685.46 12.4542 1685.89 13.2062C1686.34 13.9582 1686.56 14.7982 1686.56 15.7262C1686.56 16.8142 1686.24 17.8062 1685.6 18.7022C1684.98 19.5822 1684.01 20.1822 1682.7 20.5022L1686.83 27.4142H1683.56ZM1677.63 18.5582H1680.66C1681.68 18.5582 1682.45 18.3022 1682.96 17.7902C1683.49 17.2782 1683.75 16.5902 1683.75 15.7262C1683.75 14.8622 1683.5 14.1902 1682.99 13.7102C1682.47 13.2142 1681.7 12.9662 1680.66 12.9662H1677.63V18.5582ZM1699.25 27.4142L1692.8 19.9502V27.4142H1690.06V10.7342H1692.8V18.3422L1699.28 10.7342H1702.71L1695.46 19.0862L1702.83 27.4142H1699.25Z" fill="#1C1C1C"/>
</g>
<defs>
<clipPath id="clip0_386_610">
<rect width="1721" height="38" fill="white"/>
</clipPath>
</defs>
</svg>
