<svg width="4720" height="517" viewBox="0 0 4720 517" fill="none" xmlns="http://www.w3.org/2000/svg">
<path d="M362.116 156.952C159.819 -97.7678 0 156.952 0 156.952V517H2360V156.952C2360 156.952 2215.17 375.806 1950.41 156.952C1685.65 -61.9017 1525.83 156.952 1525.83 156.952C1525.83 156.952 1308.63 510.094 1118.83 156.952C929.027 -196.19 731.728 156.952 731.728 156.952C731.728 156.952 564.413 411.672 362.116 156.952Z" fill="#AC4A73"/>
<path d="M2722.12 156.952C2519.82 -97.7678 2360 156.952 2360 156.952V517H4720V156.952C4720 156.952 4575.17 375.806 4310.41 156.952C4045.65 -61.9017 3885.83 156.952 3885.83 156.952C3885.83 156.952 3668.63 510.094 3478.83 156.952C3289.03 -196.19 3091.73 156.952 3091.73 156.952C3091.73 156.952 2924.41 411.672 2722.12 156.952Z" fill="#AC4A73"/>
</svg>
