<svg width="1728" height="517" viewBox="0 0 1728 517" fill="none" xmlns="http://www.w3.org/2000/svg">
<path d="M-1997.88 156.952C-2200.18 -97.7678 -2360 156.952 -2360 156.952V517H0V156.952C0 156.952 -144.827 375.806 -409.591 156.952C-674.354 -61.9017 -834.174 156.952 -834.174 156.952C-834.174 156.952 -1051.37 510.094 -1241.17 156.952C-1430.97 -196.19 -1628.27 156.952 -1628.27 156.952C-1628.27 156.952 -1795.59 411.672 -1997.88 156.952Z" fill="#CA5A89"/>
<path d="M362.116 156.952C159.819 -97.7678 0 156.952 0 156.952V517H2360V156.952C2360 156.952 2215.17 375.806 1950.41 156.952C1685.65 -61.9017 1525.83 156.952 1525.83 156.952C1525.83 156.952 1308.63 510.094 1118.83 156.952C929.027 -196.19 731.728 156.952 731.728 156.952C731.728 156.952 564.413 411.672 362.116 156.952Z" fill="#CA5A89"/>
</svg>
