<svg width="1728" height="711" viewBox="0 0 1728 711" fill="none" xmlns="http://www.w3.org/2000/svg">
<path d="M0 2C408.042 177.949 141.088 353.779 476.5 331C744.829 312.777 908.865 357.888 982 465.5C1055.13 573.112 733.315 825.19 697 619C660.685 412.81 1727 709 1727 709" stroke="#50724B" stroke-width="3"/>
<path d="M173.259 91.073C168.426 110.647 148.876 122.538 129.591 117.633C110.307 112.727 98.5918 92.883 103.425 73.309C108.257 53.735 127.808 41.8437 147.092 46.7491C166.377 51.6545 178.092 71.4989 173.259 91.073Z" fill="#CA5A89"/>
<path d="M168.149 92.683L161.71 91.0449C160.944 90.8502 160.318 90.9025 159.832 91.2019C159.344 91.5111 159.011 92.0249 158.834 92.7433C158.654 93.4714 158.709 94.0838 158.998 94.5805C159.285 95.0869 159.811 95.4374 160.577 95.6322L167.017 97.2703L166.607 98.9304L160.196 97.2997C159.372 97.0902 158.719 96.7331 158.236 96.2284C157.753 95.7237 157.445 95.1347 157.313 94.4613C157.18 93.7879 157.204 93.0871 157.384 92.359C157.563 91.6308 157.868 91.0015 158.298 90.4711C158.725 89.9504 159.268 89.588 159.926 89.3839C160.584 89.1799 161.325 89.1826 162.149 89.3922L168.559 91.0229L168.149 92.683Z" fill="#1C1C1C"/>
<path d="M159.966 105.539L152.209 98.5287L153.334 97.2469L161.091 104.257L159.966 105.539Z" fill="#1C1C1C"/>
<path d="M149.328 116.769L144.903 99.9652L146.367 99.1535L150.805 115.95L149.328 116.769Z" fill="#1C1C1C"/>
<path d="M137.446 114.279L137.023 107.634C136.973 106.844 136.731 106.263 136.297 105.89C135.854 105.517 135.263 105.355 134.526 105.403C133.779 105.452 133.215 105.69 132.832 106.117C132.439 106.544 132.268 107.153 132.318 107.943L132.741 114.588L131.038 114.699L130.617 108.084C130.563 107.234 130.701 106.502 131.032 105.888C131.363 105.274 131.828 104.802 132.427 104.471C133.026 104.141 133.699 103.951 134.446 103.902C135.193 103.853 135.884 103.953 136.52 104.203C137.146 104.453 137.657 104.862 138.053 105.428C138.449 105.995 138.674 106.703 138.728 107.553L139.149 114.168L137.446 114.279Z" fill="#1C1C1C"/>
<path d="M122.058 104.074L121.212 97.974L122.961 98.7721L123.577 103.203L127.115 100.668L128.85 101.46L123.793 104.866L124.646 110.986L122.897 110.188L122.28 105.723L118.716 108.28L116.981 107.488L122.058 104.074Z" fill="#1C1C1C"/>
<path d="M107.06 87.8694C106.714 86.8112 106.614 85.818 106.761 84.8896C106.895 83.955 107.269 83.1456 107.884 82.4615C108.487 81.7711 109.288 81.2569 110.29 80.919C111.291 80.581 112.231 80.5069 113.112 80.6967C113.989 80.877 114.757 81.3005 115.416 81.9673C116.063 82.6278 116.559 83.4872 116.906 84.5453L117.97 87.7912L108.124 91.1153L107.06 87.8694ZM115.589 84.9901C115.207 83.8271 114.604 83.041 113.777 82.6318C112.951 82.2226 111.971 82.2093 110.838 82.592C109.695 82.9778 108.904 83.5889 108.465 84.4254C108.026 85.2618 107.997 86.2616 108.378 87.4246L108.907 89.0404L116.118 86.6059L115.589 84.9901Z" fill="#1C1C1C"/>
<path d="M115.039 68.867C115.343 68.9257 115.614 68.9983 115.852 69.085L114.69 75.2947C115.347 75.3704 115.913 75.2298 116.386 74.8728C116.86 74.5158 117.155 74.0227 117.273 73.3933C117.442 72.4886 117.184 71.7766 116.498 71.2573L116.838 69.443C117.538 69.8327 118.067 70.3983 118.427 71.14C118.778 71.87 118.865 72.7119 118.686 73.6658C118.541 74.4426 118.239 75.1077 117.779 75.6609C117.312 76.2025 116.731 76.5897 116.037 76.8227C115.334 77.0438 114.566 77.074 113.732 76.9132C112.897 76.7524 112.197 76.4443 111.632 75.9888C111.058 75.5217 110.657 74.9502 110.427 74.2743C110.199 73.5886 110.16 72.8475 110.309 72.051C110.453 71.284 110.747 70.6327 111.193 70.0972C111.639 69.5617 112.198 69.1854 112.869 68.9684C113.53 68.7495 114.253 68.7157 115.039 68.867ZM114.18 70.5201C113.56 70.4108 113.023 70.5365 112.569 70.8972C112.115 71.258 111.828 71.758 111.709 72.3972C111.6 72.9773 111.694 73.5099 111.989 73.9948C112.275 74.4778 112.725 74.8191 113.338 75.0189L114.18 70.5201Z" fill="#1C1C1C"/>
<path d="M124.116 66.1012C123.728 66.6203 123.287 67.0172 122.793 67.2918C122.298 67.5523 121.802 67.6799 121.305 67.6747C120.8 67.6634 120.343 67.5127 119.934 67.2227L120.992 65.809C121.288 65.9992 121.621 66.048 121.991 65.9552C122.358 65.8484 122.68 65.6113 122.955 65.2438C123.241 64.8605 123.391 64.5098 123.403 64.192C123.414 63.8601 123.304 63.6054 123.074 63.4279C122.828 63.2382 122.555 63.2172 122.257 63.365C121.965 63.5049 121.556 63.7753 121.03 64.1763C120.525 64.5675 120.092 64.8698 119.732 65.0834C119.372 65.297 118.974 65.4186 118.539 65.4483C118.11 65.47 117.681 65.3156 117.252 64.9851C116.902 64.7158 116.662 64.3672 116.532 63.9392C116.393 63.5051 116.384 63.0321 116.504 62.5201C116.63 62.0002 116.881 61.4887 117.258 60.9855C117.82 60.2347 118.461 59.7785 119.183 59.617C119.903 59.4414 120.6 59.5886 121.275 60.0585L120.253 61.4243C119.942 61.2218 119.618 61.1611 119.282 61.2421C118.946 61.3231 118.64 61.5473 118.365 61.9147C118.097 62.2741 117.958 62.6017 117.95 62.8975C117.941 63.1932 118.048 63.4267 118.27 63.5981C118.445 63.7328 118.64 63.7821 118.855 63.7461C119.069 63.7101 119.281 63.6278 119.49 63.4991C119.691 63.3644 119.977 63.1571 120.35 62.8772C120.835 62.4959 121.259 62.2055 121.621 62.0061C121.981 61.7925 122.372 61.6718 122.793 61.644C123.215 61.6162 123.639 61.7605 124.066 62.0768C124.439 62.3645 124.695 62.7254 124.833 63.1595C124.972 63.5936 124.981 64.0666 124.861 64.5785C124.747 65.0824 124.498 65.59 124.116 66.1012Z" fill="#1C1C1C"/>
<path d="M125.862 53.9824C125.59 54.1282 125.313 54.1569 125.031 54.0687C124.749 53.9805 124.537 53.7984 124.393 53.5223C124.25 53.2463 124.222 52.9654 124.309 52.6796C124.397 52.3939 124.576 52.1781 124.849 52.0323C125.112 51.8912 125.385 51.8648 125.667 51.953C125.948 52.0412 126.161 52.2234 126.304 52.4994C126.448 52.7754 126.476 53.0563 126.388 53.3421C126.301 53.6278 126.126 53.8413 125.862 53.9824ZM127.107 54.5624L130.931 61.9219L129.428 62.7261L125.604 55.3666L127.107 54.5624Z" fill="#1C1C1C"/>
<path d="M138.597 51.9308C139.229 51.8406 139.804 51.8901 140.324 52.0792C140.852 52.257 141.281 52.5148 141.609 52.8527L141.444 51.6612L143.148 51.4181L144.303 59.7589C144.407 60.5135 144.342 61.2063 144.107 61.8372C143.874 62.4781 143.479 63.0103 142.924 63.4338C142.378 63.856 141.69 64.1262 140.861 64.2446C139.755 64.4024 138.8 64.2703 137.996 63.8483C137.194 63.4362 136.681 62.7904 136.459 61.9108L138.133 61.672C138.32 62.0806 138.639 62.3845 139.09 62.5835C139.552 62.791 140.074 62.8532 140.656 62.77C141.338 62.6728 141.857 62.3861 142.214 61.9099C142.581 61.4323 142.709 60.7963 142.599 60.0019L142.41 58.6317C142.177 59.0598 141.832 59.4431 141.376 59.7816C140.927 60.1088 140.392 60.3168 139.77 60.4056C139.059 60.507 138.383 60.4213 137.741 60.1484C137.107 59.8641 136.573 59.4239 136.138 58.8278C135.711 58.2204 135.441 57.5046 135.327 56.6804C135.213 55.8563 135.28 55.1025 135.527 54.4191C135.785 53.7343 136.181 53.1766 136.716 52.7459C137.259 52.3039 137.886 52.0322 138.597 51.9308ZM142.012 55.7571C141.933 55.1911 141.747 54.7165 141.452 54.3333C141.167 53.9486 140.822 53.6739 140.416 53.509C140.011 53.3441 139.591 53.2926 139.156 53.3546C138.722 53.4166 138.332 53.5836 137.987 53.8556C137.641 54.1176 137.378 54.4741 137.199 54.9249C137.028 55.3644 136.982 55.8672 137.06 56.4332C137.138 56.9991 137.321 57.4794 137.607 57.874C137.903 58.2671 138.255 58.5511 138.661 58.726C139.077 58.8895 139.497 58.9409 139.921 58.8803C140.356 58.8183 140.746 58.6514 141.091 58.3794C141.436 58.1074 141.693 57.7467 141.862 57.2972C142.04 56.8364 142.09 56.3231 142.012 55.7571Z" fill="#1C1C1C"/>
<path d="M153.29 55.8398C153.901 56.0632 154.401 56.3897 154.79 56.8192C155.188 57.2522 155.435 57.7681 155.531 58.3669C155.626 58.9657 155.549 59.6182 155.298 60.3246L153.668 64.9156L152.075 64.333L153.62 59.9822C153.867 59.2853 153.882 58.6896 153.665 58.1951C153.45 57.6913 153.043 57.3294 152.441 57.1094C151.84 56.8895 151.294 56.9025 150.803 57.1486C150.325 57.3887 149.962 57.8573 149.715 58.5541L148.17 62.905L146.563 62.3173L149.326 54.5338L150.933 55.1215L150.617 56.0114C150.994 55.7875 151.416 55.6599 151.884 55.6288C152.361 55.6011 152.83 55.6714 153.29 55.8398Z" fill="#1C1C1C"/>
<path d="M162.903 71.1911C162.677 71.4012 162.459 71.5761 162.249 71.7157L158.011 67.0066C157.562 67.4912 157.339 68.0331 157.342 68.6323C157.345 69.2315 157.561 69.7697 157.991 70.247C158.608 70.933 159.326 71.1568 160.143 70.9183L161.382 72.2941C160.658 72.6228 159.896 72.7071 159.095 72.547C158.308 72.3876 157.589 71.9463 156.938 71.2229C156.408 70.6338 156.059 69.9858 155.892 69.2788C155.739 68.5725 155.776 67.8682 156.002 67.166C156.242 66.4645 156.673 65.8256 157.294 65.2496C157.915 64.6735 158.574 64.2953 159.27 64.1151C159.98 63.9356 160.671 63.9584 161.343 64.1835C162.022 64.4161 162.633 64.8344 163.176 65.4384C163.7 66.02 164.042 66.6535 164.203 67.3388C164.364 68.0241 164.332 68.7036 164.107 69.3774C163.889 70.0443 163.488 70.6489 162.903 71.1911ZM162.1 69.4941C162.554 69.0596 162.772 68.5496 162.754 67.9639C162.737 67.3783 162.51 66.8431 162.073 66.3584C161.677 65.9184 161.2 65.6706 160.64 65.615C160.088 65.5526 159.551 65.7084 159.029 66.0825L162.1 69.4941Z" fill="#1C1C1C"/>
<path d="M166.129 77.0536C166.599 77.1772 167.001 77.4046 167.333 77.7358C167.678 78.0739 167.928 78.5179 168.084 79.0678L166.391 79.5634L166.272 79.1437C166.088 78.4972 165.786 78.0527 165.364 77.8102C164.946 77.5773 164.335 77.5785 163.531 77.8137L159.369 79.0316L158.9 77.3816L166.808 75.0677L167.277 76.7176L166.129 77.0536Z" fill="#1C1C1C"/>
<path d="M140.656 71.0898L141.233 79.6133L149.398 81.6902L141.59 84.8812L142.167 93.4047L136.764 86.8533L128.956 90.0442L133.425 82.8043L128.022 76.2529L136.187 78.3297L140.656 71.0898Z" fill="black"/>
<path d="M152.541 85.8029C150.568 93.7913 142.603 98.6127 134.779 96.6226C126.955 94.6324 122.171 86.5677 124.143 78.5793C126.115 70.5909 134.081 65.7695 141.905 67.7596C149.729 69.7498 154.513 77.8145 152.541 85.8029Z" stroke="#1C1C1C" stroke-width="3"/>
<path d="M1191.87 586.434C1187.04 606.008 1167.49 617.899 1148.21 612.994C1128.92 608.089 1117.21 588.244 1122.04 568.67C1126.87 549.096 1146.42 537.205 1165.71 542.11C1184.99 547.016 1196.71 566.86 1191.87 586.434Z" fill="#CA5A89"/>
<path d="M1145.88 605.135C1145.51 605.988 1144.93 606.544 1144.14 606.804C1143.35 607.061 1142.47 607.01 1141.51 606.652C1140.86 606.407 1140.33 606.077 1139.94 605.663C1139.55 605.249 1139.3 604.795 1139.21 604.3C1139.11 603.805 1139.15 603.303 1139.34 602.796C1139.55 602.214 1139.88 601.774 1140.34 601.477C1140.8 601.179 1141.27 601.041 1141.76 601.062L1141.78 601.005C1141.29 600.629 1140.97 600.158 1140.82 599.591C1140.67 599.034 1140.72 598.408 1140.98 597.713C1141.18 597.159 1141.48 596.713 1141.89 596.376C1142.3 596.039 1142.8 595.836 1143.39 595.769C1143.98 595.711 1144.62 595.812 1145.31 596.071C1146.32 596.45 1147.06 597.021 1147.53 597.783C1147.99 598.551 1148.06 599.432 1147.75 600.427L1146.21 599.848C1146.35 599.336 1146.31 598.855 1146.08 598.406C1145.84 597.966 1145.43 597.636 1144.84 597.415C1144.27 597.201 1143.77 597.191 1143.35 597.385C1142.92 597.588 1142.62 597.939 1142.44 598.437C1142.2 599.094 1142.24 599.638 1142.57 600.068C1142.88 600.504 1143.46 600.884 1144.32 601.207L1144.69 601.344L1144.21 602.668L1143.83 602.526C1143.07 602.251 1142.44 602.162 1141.96 602.258C1141.47 602.352 1141.13 602.661 1140.94 603.187C1140.77 603.638 1140.79 604.049 1140.98 604.421C1141.17 604.802 1141.54 605.093 1142.07 605.293C1142.6 605.489 1143.05 605.506 1143.44 605.342C1143.83 605.188 1144.12 604.924 1144.32 604.551L1145.88 605.135Z" fill="#1C1C1C"/>
<path d="M1130.94 596.104C1130.18 595.287 1129.68 594.425 1129.42 593.519C1129.15 592.611 1129.15 591.717 1129.42 590.835C1129.67 589.953 1130.18 589.147 1130.95 588.417C1131.71 587.687 1132.53 587.223 1133.41 587.025C1134.28 586.819 1135.15 586.88 1136.03 587.209C1136.89 587.538 1137.7 588.11 1138.45 588.927L1140.78 591.432L1133.26 598.609L1130.94 596.104ZM1137.45 589.887C1136.62 588.99 1135.74 588.529 1134.82 588.505C1133.9 588.481 1133.01 588.882 1132.15 589.708C1131.27 590.541 1130.81 591.431 1130.77 592.377C1130.72 593.324 1131.11 594.246 1131.94 595.143L1133.1 596.39L1138.6 591.134L1137.45 589.887Z" fill="#1C1C1C"/>
<path d="M1126.8 562.485L1137.16 563.492L1137 565.196L1129.91 564.507L1136.71 568.365L1136.59 569.546L1129.2 572.041L1136.29 572.73L1136.13 574.435L1125.77 573.428L1125.94 571.589L1134.41 568.731L1126.63 564.309L1126.8 562.485Z" fill="#1C1C1C"/>
<path d="M1143.08 560.995C1142.61 561.618 1142.05 562.074 1141.4 562.363C1140.74 562.646 1140.04 562.735 1139.32 562.631C1138.59 562.521 1137.89 562.206 1137.21 561.685C1136.54 561.171 1136.06 560.568 1135.77 559.874C1135.47 559.181 1135.38 558.472 1135.48 557.746C1135.59 557.021 1135.87 556.343 1136.35 555.712C1136.82 555.081 1137.38 554.617 1138.05 554.32C1138.71 554.023 1139.4 553.925 1140.14 554.028C1140.88 554.13 1141.58 554.438 1142.25 554.952C1142.92 555.466 1143.39 556.074 1143.68 556.775C1143.97 557.477 1144.06 558.201 1143.95 558.948C1143.84 559.682 1143.55 560.364 1143.08 560.995ZM1141.9 560.086C1142.16 559.735 1142.32 559.343 1142.39 558.911C1142.45 558.471 1142.39 558.027 1142.2 557.578C1142.01 557.129 1141.68 556.721 1141.2 556.354C1140.72 555.987 1140.25 555.769 1139.79 555.702C1139.32 555.629 1138.89 555.68 1138.49 555.855C1138.1 556.03 1137.77 556.293 1137.51 556.644C1137.25 556.996 1137.08 557.388 1137.02 557.82C1136.97 558.244 1137.04 558.672 1137.24 559.105C1137.44 559.531 1137.77 559.928 1138.25 560.296C1138.96 560.84 1139.64 561.083 1140.3 561.023C1140.95 560.95 1141.49 560.637 1141.9 560.086Z" fill="#1C1C1C"/>
<path d="M1146.74 554.095C1146.39 553.339 1146.23 552.596 1146.27 551.868C1146.31 551.135 1146.53 550.483 1146.91 549.911C1147.3 549.327 1147.82 548.878 1148.48 548.566C1148.97 548.335 1149.49 548.217 1150.06 548.213C1150.64 548.196 1151.14 548.299 1151.59 548.521L1149.91 544.886L1151.46 544.148L1156.13 554.261L1154.58 554.999L1154.05 553.865C1153.97 554.349 1153.76 554.817 1153.42 555.268C1153.08 555.714 1152.63 556.074 1152.06 556.348C1151.41 556.656 1150.74 556.775 1150.05 556.703C1149.36 556.619 1148.72 556.355 1148.13 555.913C1147.55 555.457 1147.08 554.851 1146.74 554.095ZM1152.84 551.227C1152.6 550.708 1152.28 550.308 1151.89 550.028C1151.5 549.744 1151.1 549.583 1150.66 549.545C1150.23 549.507 1149.81 549.583 1149.42 549.771C1149.02 549.959 1148.7 550.235 1148.45 550.598C1148.19 550.952 1148.05 551.371 1148.01 551.857C1147.97 552.329 1148.07 552.824 1148.31 553.344C1148.55 553.863 1148.87 554.269 1149.26 554.563C1149.65 554.852 1150.07 555.02 1150.51 555.067C1150.95 555.1 1151.37 555.025 1151.75 554.841C1152.15 554.653 1152.47 554.377 1152.72 554.014C1152.97 553.651 1153.11 553.229 1153.14 552.748C1153.18 552.254 1153.08 551.747 1152.84 551.227Z" fill="#1C1C1C"/>
<path d="M1166.7 552.111C1166.69 552.422 1166.66 552.701 1166.6 552.949L1160.31 552.657C1160.33 553.32 1160.55 553.861 1160.97 554.282C1161.39 554.702 1161.92 554.927 1162.56 554.957C1163.47 554.999 1164.14 554.644 1164.55 553.891L1166.39 553.977C1166.11 554.725 1165.63 555.33 1164.95 555.789C1164.28 556.239 1163.46 556.442 1162.49 556.397C1161.7 556.361 1161 556.153 1160.39 555.774C1159.79 555.385 1159.32 554.862 1158.99 554.205C1158.67 553.539 1158.53 552.78 1158.57 551.93C1158.61 551.08 1158.81 550.342 1159.18 549.718C1159.56 549.084 1160.06 548.606 1160.7 548.285C1161.34 547.964 1162.07 547.822 1162.88 547.859C1163.65 547.895 1164.34 548.097 1164.93 548.466C1165.53 548.834 1165.98 549.336 1166.29 549.972C1166.6 550.598 1166.74 551.311 1166.7 552.111ZM1164.95 551.489C1164.96 550.858 1164.76 550.343 1164.34 549.942C1163.92 549.542 1163.38 549.326 1162.74 549.296C1162.15 549.269 1161.63 549.436 1161.2 549.796C1160.76 550.147 1160.49 550.641 1160.38 551.277L1164.95 551.489Z" fill="#1C1C1C"/>
<path d="M1174.96 550.365L1169.65 560.089L1168.16 559.248L1173.47 549.525L1174.96 550.365Z" fill="#1C1C1C"/>
<path d="M1182.93 558.149L1174.66 565.491L1173.54 564.191L1181.81 556.849L1182.93 558.149Z" fill="#1C1C1C"/>
<path d="M1183.75 576.348C1183.47 576.462 1183.2 576.546 1182.95 576.6L1180.68 570.687C1180.08 570.976 1179.68 571.401 1179.47 571.96C1179.26 572.518 1179.27 573.098 1179.5 573.697C1179.83 574.558 1180.42 575.025 1181.27 575.098L1181.93 576.826C1181.14 576.871 1180.4 576.675 1179.71 576.237C1179.03 575.804 1178.51 575.134 1178.16 574.226C1177.88 573.486 1177.78 572.757 1177.88 572.038C1177.99 571.326 1178.28 570.683 1178.74 570.111C1179.22 569.545 1179.85 569.105 1180.64 568.793C1181.42 568.481 1182.18 568.366 1182.89 568.449C1183.62 568.538 1184.26 568.809 1184.81 569.261C1185.36 569.722 1185.78 570.332 1186.07 571.091C1186.35 571.821 1186.44 572.534 1186.35 573.23C1186.25 573.926 1185.98 574.547 1185.53 575.094C1185.09 575.636 1184.49 576.054 1183.75 576.348ZM1183.61 574.478C1184.19 574.237 1184.58 573.841 1184.77 573.29C1184.96 572.738 1184.94 572.158 1184.71 571.549C1184.5 570.997 1184.14 570.594 1183.64 570.34C1183.14 570.083 1182.58 570.034 1181.96 570.194L1183.61 574.478Z" fill="#1C1C1C"/>
<path d="M1184.68 582.821C1185.08 583.107 1185.38 583.465 1185.57 583.895C1185.77 584.335 1185.85 584.839 1185.8 585.408L1184.04 585.251L1184.08 584.817C1184.13 584.149 1184.01 583.625 1183.7 583.246C1183.39 582.876 1182.82 582.654 1181.98 582.58L1177.66 582.193L1177.8 580.488L1186.03 581.222L1185.88 582.927L1184.68 582.821Z" fill="#1C1C1C"/>
<path d="M1171.15 581.164C1169.18 589.152 1161.22 593.974 1153.39 591.984C1145.57 589.994 1140.78 581.929 1142.76 573.94C1144.73 565.952 1152.69 561.131 1160.52 563.121C1168.34 565.111 1173.13 573.176 1171.15 581.164Z" stroke="black" stroke-width="3"/>
<path d="M1159.27 566.451L1159.85 574.974L1168.01 577.051L1160.2 580.242L1160.78 588.766L1155.38 582.214L1147.57 585.405L1152.04 578.165L1146.64 571.614L1154.8 573.691L1159.27 566.451Z" fill="#1C1C1C"/>
<path d="M1544.68 662.551C1539.85 682.125 1520.3 694.016 1501.02 689.111C1481.73 684.206 1470.02 664.361 1474.85 644.787C1479.68 625.213 1499.23 613.322 1518.52 618.227C1537.8 623.133 1549.52 642.977 1544.68 662.551Z" fill="#CA5A89"/>
<path d="M1477.74 649.764L1479.12 649.615L1479.58 654.025L1482.63 653.696L1482.27 650.257L1483.66 650.108L1484.02 653.547L1488.54 653.059L1488.72 654.763L1478.38 655.879L1477.74 649.764Z" fill="#1C1C1C"/>
<path d="M1484.18 641.609C1483.86 641.233 1483.66 640.813 1483.58 640.349C1483.49 639.872 1483.53 639.364 1483.72 638.825L1485.39 639.414L1485.25 639.825C1485.03 640.459 1485.03 640.997 1485.23 641.441C1485.44 641.876 1485.95 642.233 1486.74 642.513L1490.84 643.96L1490.29 645.577L1482.49 642.827L1483.04 641.21L1484.18 641.609Z" fill="#1C1C1C"/>
<path d="M1497.19 636.064C1496.68 636.648 1496.09 637.059 1495.41 637.296C1494.73 637.526 1494.03 637.561 1493.32 637.401C1492.6 637.233 1491.92 636.864 1491.29 636.292C1490.66 635.728 1490.23 635.088 1489.99 634.373C1489.75 633.659 1489.71 632.944 1489.87 632.229C1490.03 631.514 1490.37 630.86 1490.89 630.268C1491.41 629.676 1492.01 629.258 1492.69 629.013C1493.37 628.769 1494.08 628.727 1494.8 628.886C1495.53 629.046 1496.21 629.408 1496.83 629.973C1497.46 630.538 1497.89 631.181 1498.12 631.903C1498.35 632.625 1498.39 633.355 1498.22 634.092C1498.05 634.814 1497.71 635.472 1497.19 636.064ZM1496.09 635.065C1496.38 634.735 1496.57 634.357 1496.66 633.931C1496.76 633.498 1496.73 633.05 1496.58 632.587C1496.42 632.125 1496.12 631.692 1495.68 631.289C1495.23 630.885 1494.78 630.632 1494.32 630.529C1493.86 630.419 1493.43 630.435 1493.02 630.579C1492.61 630.723 1492.27 630.959 1491.98 631.289C1491.69 631.619 1491.5 631.997 1491.4 632.423C1491.31 632.842 1491.35 633.275 1491.52 633.722C1491.68 634.163 1491.99 634.585 1492.43 634.988C1493.1 635.587 1493.76 635.882 1494.42 635.874C1495.08 635.852 1495.63 635.582 1496.09 635.065Z" fill="#1C1C1C"/>
<path d="M1504.27 623.805C1504.88 623.573 1505.46 623.493 1506.03 623.564C1506.61 623.633 1507.13 623.864 1507.58 624.259C1508.04 624.654 1508.4 625.204 1508.66 625.909L1510.37 630.492L1508.79 631.097L1507.17 626.754C1506.91 626.058 1506.54 625.593 1506.06 625.358C1505.58 625.114 1505.04 625.106 1504.44 625.335C1503.85 625.563 1503.44 625.934 1503.23 626.445C1503.02 626.944 1503.05 627.541 1503.31 628.237L1504.92 632.581L1503.33 633.191L1500.44 625.421L1502.03 624.81L1502.36 625.699C1502.5 625.279 1502.74 624.903 1503.07 624.571C1503.42 624.235 1503.82 623.98 1504.27 623.805Z" fill="#1C1C1C"/>
<path d="M1516.14 625.848L1515.59 630.394C1515.56 630.702 1515.6 630.934 1515.72 631.09C1515.85 631.238 1516.09 631.334 1516.44 631.377L1517.48 631.507L1517.31 632.923L1515.97 632.756C1515.21 632.66 1514.65 632.409 1514.28 632C1513.92 631.592 1513.79 630.985 1513.88 630.181L1514.43 625.635L1513.47 625.514L1513.64 624.128L1514.6 624.249L1514.85 622.207L1516.56 622.42L1516.31 624.462L1518.31 624.71L1518.14 626.097L1516.14 625.848Z" fill="#1C1C1C"/>
<path d="M1529.77 635.432C1529.62 635.702 1529.47 635.936 1529.31 636.135L1523.82 632.989C1523.54 633.59 1523.5 634.174 1523.69 634.742C1523.88 635.31 1524.25 635.754 1524.81 636.073C1525.6 636.531 1526.36 636.519 1527.06 636.036L1528.66 636.955C1528.08 637.494 1527.38 637.812 1526.57 637.911C1525.77 638.006 1524.95 637.812 1524.11 637.329C1523.42 636.935 1522.89 636.429 1522.51 635.81C1522.15 635.187 1521.96 634.507 1521.96 633.769C1521.97 633.028 1522.18 632.286 1522.6 631.545C1523.01 630.803 1523.52 630.238 1524.12 629.849C1524.74 629.456 1525.41 629.262 1526.12 629.265C1526.83 629.274 1527.54 629.48 1528.25 629.883C1528.93 630.272 1529.45 630.766 1529.81 631.367C1530.18 631.967 1530.36 632.622 1530.35 633.333C1530.35 634.034 1530.16 634.734 1529.77 635.432ZM1528.48 634.072C1528.78 633.517 1528.83 632.964 1528.63 632.414C1528.43 631.863 1528.05 631.426 1527.48 631.102C1526.97 630.808 1526.44 630.722 1525.89 630.845C1525.35 630.958 1524.88 631.274 1524.5 631.793L1528.48 634.072Z" fill="#1C1C1C"/>
<path d="M1537.08 641.306C1537.44 641.849 1537.66 642.409 1537.72 642.987C1537.78 643.574 1537.68 644.138 1537.41 644.679C1537.13 645.22 1536.69 645.702 1536.07 646.124L1532.07 648.873L1531.12 647.457L1534.92 644.852C1535.53 644.435 1535.89 643.962 1536 643.433C1536.13 642.899 1536.01 642.364 1535.65 641.83C1535.3 641.295 1534.85 640.982 1534.31 640.89C1533.78 640.801 1533.22 640.965 1532.61 641.382L1528.81 643.986L1527.86 642.558L1534.65 637.899L1535.6 639.327L1534.83 639.86C1535.26 639.902 1535.68 640.049 1536.07 640.301C1536.47 640.562 1536.81 640.896 1537.08 641.306Z" fill="#1C1C1C"/>
<path d="M1534.87 651.296C1535.69 651.201 1536.44 651.286 1537.11 651.551C1537.78 651.826 1538.33 652.238 1538.74 652.785C1539.16 653.342 1539.42 653.983 1539.5 654.71C1539.56 655.248 1539.5 655.79 1539.32 656.335C1539.15 656.89 1538.89 657.343 1538.54 657.697L1542.49 657.24L1542.69 658.958L1531.68 660.23L1531.49 658.512L1532.73 658.369C1532.3 658.136 1531.93 657.785 1531.61 657.317C1531.3 656.859 1531.11 656.311 1531.04 655.673C1530.96 654.956 1531.06 654.278 1531.35 653.639C1531.65 653.009 1532.11 652.483 1532.71 652.06C1533.33 651.645 1534.05 651.391 1534.87 651.296ZM1535.59 658.037C1536.16 657.972 1536.64 657.796 1537.03 657.509C1537.42 657.231 1537.7 656.891 1537.88 656.487C1538.05 656.083 1538.11 655.662 1538.06 655.224C1538.02 654.786 1537.86 654.39 1537.6 654.037C1537.35 653.682 1537 653.41 1536.56 653.219C1536.13 653.037 1535.63 652.978 1535.06 653.044C1534.5 653.109 1534.02 653.281 1533.62 653.559C1533.22 653.847 1532.92 654.194 1532.74 654.599C1532.56 655.013 1532.5 655.434 1532.55 655.862C1532.6 656.3 1532.75 656.696 1533.01 657.049C1533.27 657.402 1533.63 657.67 1534.07 657.851C1534.52 658.04 1535.03 658.103 1535.59 658.037Z" fill="#1C1C1C"/>
<path d="M1523.97 657.281C1521.99 665.27 1514.03 670.091 1506.2 668.101C1498.38 666.111 1493.6 658.046 1495.57 650.058C1497.54 642.069 1505.51 637.248 1513.33 639.238C1521.15 641.228 1525.94 649.293 1523.97 657.281Z" stroke="black" stroke-width="3"/>
<path d="M1512.08 642.568L1512.66 651.092L1520.82 653.169L1513.02 656.36L1513.59 664.883L1508.19 658.332L1500.38 661.523L1504.85 654.283L1499.45 647.731L1507.61 649.808L1512.08 642.568Z" fill="#1C1C1C"/>
</svg>
