<svg width="1729" height="438" viewBox="0 0 1729 438" fill="none" xmlns="http://www.w3.org/2000/svg">
<path d="M0.101624 29.2942C0.101624 29.2942 589.071 63.2385 570.288 227.782C551.505 392.325 1326.29 152.414 1082.78 140.332C839.282 128.25 1465.15 604.046 1494.66 372.189C1524.18 140.332 1728.1 253.096 1728.1 253.096" stroke="#50724B" stroke-width="3"/>
<path d="M1637.75 246.2C1631.87 269.667 1608.08 283.922 1584.61 278.042C1561.14 272.161 1546.89 248.37 1552.77 224.904C1558.65 201.438 1582.44 187.182 1605.91 193.062C1629.37 198.943 1643.63 222.734 1637.75 246.2Z" fill="#CA5A89"/>
<path d="M1557.45 232.218L1558.84 232.071L1559.31 236.471L1562.37 236.146L1562 232.715L1563.39 232.568L1563.75 235.998L1568.29 235.516L1568.47 237.217L1558.1 238.319L1557.45 232.218Z" fill="#1C1C1C"/>
<path d="M1564.21 221.724C1563.89 221.35 1563.69 220.932 1563.61 220.469C1563.52 219.994 1563.57 219.487 1563.76 218.948L1565.43 219.529L1565.29 219.94C1565.07 220.573 1565.06 221.11 1565.27 221.552C1565.47 221.985 1565.98 222.339 1566.77 222.615L1570.88 224.042L1570.32 225.657L1562.51 222.946L1563.07 221.331L1564.21 221.724Z" fill="#1C1C1C"/>
<path d="M1578.41 214.354C1577.89 214.936 1577.3 215.346 1576.62 215.584C1575.93 215.815 1575.22 215.852 1574.51 215.696C1573.78 215.532 1573.1 215.168 1572.47 214.603C1571.84 214.044 1571.41 213.411 1571.17 212.702C1570.93 211.993 1570.89 211.284 1571.05 210.573C1571.22 209.862 1571.56 209.212 1572.09 208.622C1572.61 208.032 1573.22 207.614 1573.91 207.369C1574.59 207.124 1575.3 207.079 1576.04 207.235C1576.77 207.391 1577.45 207.748 1578.07 208.307C1578.7 208.865 1579.13 209.503 1579.36 210.219C1579.6 210.935 1579.63 211.659 1579.46 212.391C1579.29 213.109 1578.94 213.764 1578.41 214.354ZM1577.3 213.366C1577.6 213.037 1577.79 212.661 1577.89 212.238C1577.99 211.807 1577.96 211.362 1577.81 210.904C1577.66 210.445 1577.35 210.016 1576.91 209.617C1576.46 209.218 1576 208.969 1575.55 208.868C1575.08 208.76 1574.64 208.779 1574.23 208.923C1573.82 209.067 1573.47 209.303 1573.18 209.632C1572.89 209.96 1572.69 210.336 1572.6 210.76C1572.51 211.176 1572.55 211.606 1572.71 212.049C1572.87 212.486 1573.18 212.904 1573.62 213.303C1574.29 213.895 1574.95 214.186 1575.62 214.176C1576.28 214.151 1576.85 213.881 1577.3 213.366Z" fill="#1C1C1C"/>
<path d="M1587.76 200.748C1588.37 200.518 1588.96 200.44 1589.53 200.512C1590.11 200.581 1590.63 200.812 1591.09 201.205C1591.55 201.598 1591.91 202.145 1592.18 202.847L1593.9 207.407L1592.31 208.006L1590.68 203.685C1590.42 202.993 1590.05 202.529 1589.56 202.296C1589.07 202.052 1588.53 202.044 1587.93 202.27C1587.33 202.496 1586.93 202.864 1586.71 203.372C1586.51 203.868 1586.53 204.462 1586.79 205.154L1588.43 209.476L1586.83 210.08L1583.91 202.349L1585.51 201.744L1585.84 202.628C1585.98 202.211 1586.22 201.838 1586.55 201.508C1586.9 201.175 1587.3 200.922 1587.76 200.748Z" fill="#1C1C1C"/>
<path d="M1602.31 202.486L1601.75 207.027C1601.71 207.335 1601.75 207.567 1601.87 207.723C1602.01 207.87 1602.25 207.965 1602.6 208.008L1603.64 208.136L1603.46 209.55L1602.12 209.386C1601.36 209.292 1600.8 209.041 1600.43 208.634C1600.07 208.227 1599.94 207.621 1600.04 206.817L1600.59 202.276L1599.63 202.157L1599.8 200.773L1600.76 200.892L1601.01 198.852L1602.73 199.062L1602.48 201.102L1604.47 201.347L1604.3 202.732L1602.31 202.486Z" fill="#1C1C1C"/>
<path d="M1618.04 212.645C1617.89 212.915 1617.74 213.149 1617.58 213.347L1612.08 210.242C1611.8 210.841 1611.75 211.423 1611.94 211.988C1612.12 212.552 1612.5 212.992 1613.05 213.307C1613.85 213.759 1614.61 213.743 1615.32 213.26L1616.93 214.167C1616.33 214.706 1615.63 215.026 1614.82 215.128C1614.01 215.227 1613.19 215.038 1612.35 214.561C1611.66 214.172 1611.13 213.671 1610.75 213.056C1610.39 212.438 1610.2 211.762 1610.21 211.027C1610.22 210.289 1610.44 209.55 1610.86 208.81C1611.27 208.07 1611.79 207.505 1612.4 207.115C1613.02 206.721 1613.69 206.524 1614.4 206.524C1615.12 206.529 1615.84 206.73 1616.54 207.128C1617.22 207.512 1617.74 208.002 1618.11 208.598C1618.47 209.194 1618.65 209.845 1618.64 210.552C1618.64 211.251 1618.44 211.948 1618.04 212.645ZM1616.75 211.297C1617.06 210.743 1617.11 210.193 1616.91 209.646C1616.72 209.099 1616.33 208.665 1615.77 208.346C1615.25 208.055 1614.72 207.973 1614.17 208.097C1613.62 208.213 1613.16 208.53 1612.77 209.048L1616.75 211.297Z" fill="#1C1C1C"/>
<path d="M1627.35 220.17C1627.72 220.708 1627.93 221.265 1627.99 221.838C1628.06 222.42 1627.95 222.98 1627.68 223.517C1627.4 224.054 1626.95 224.532 1626.33 224.952L1622.29 227.682L1621.34 226.278L1625.17 223.691C1625.78 223.277 1626.15 222.807 1626.26 222.282C1626.39 221.751 1626.27 221.221 1625.91 220.691C1625.55 220.161 1625.1 219.85 1624.56 219.759C1624.03 219.671 1623.46 219.834 1622.84 220.249L1619.02 222.836L1618.06 221.419L1624.91 216.791L1625.86 218.207L1625.08 218.737C1625.52 218.778 1625.94 218.924 1626.34 219.174C1626.74 219.432 1627.08 219.764 1627.35 220.17Z" fill="#1C1C1C"/>
<path d="M1626.1 232.559C1626.93 232.465 1627.68 232.551 1628.35 232.816C1629.03 233.092 1629.57 233.503 1629.99 234.049C1630.41 234.605 1630.67 235.245 1630.75 235.97C1630.81 236.507 1630.75 237.047 1630.57 237.591C1630.4 238.144 1630.14 238.596 1629.79 238.948L1633.75 238.496L1633.95 240.21L1622.92 241.467L1622.73 239.753L1623.96 239.612C1623.53 239.379 1623.16 239.029 1622.85 238.561C1622.53 238.104 1622.34 237.557 1622.27 236.921C1622.19 236.206 1622.29 235.53 1622.58 234.893C1622.88 234.265 1623.33 233.74 1623.94 233.319C1624.56 232.906 1625.28 232.653 1626.1 232.559ZM1626.84 239.284C1627.41 239.22 1627.88 239.044 1628.27 238.758C1628.67 238.482 1628.95 238.143 1629.12 237.741C1629.3 237.338 1629.36 236.918 1629.31 236.481C1629.26 236.044 1629.11 235.649 1628.85 235.296C1628.59 234.943 1628.25 234.67 1627.8 234.479C1627.37 234.297 1626.87 234.238 1626.3 234.303C1625.74 234.367 1625.25 234.538 1624.85 234.816C1624.45 235.103 1624.16 235.448 1623.97 235.852C1623.8 236.264 1623.74 236.684 1623.78 237.111C1623.83 237.548 1623.99 237.943 1624.25 238.296C1624.51 238.648 1624.86 238.915 1625.31 239.096C1625.76 239.286 1626.27 239.349 1626.84 239.284Z" fill="#1C1C1C"/>
<circle cx="1595.26" cy="235.552" r="18.1361" transform="rotate(14.069 1595.26 235.552)" stroke="black" stroke-width="3"/>
<path d="M1598.07 222.243L1598.78 232.462L1608.71 234.952L1599.21 238.777L1599.91 248.996L1593.34 241.141L1583.84 244.967L1589.28 236.287L1582.7 228.433L1592.64 230.923L1598.07 222.243Z" fill="#1C1C1C"/>
<path d="M962.975 262.579C957.094 286.045 933.303 300.301 909.837 294.42C886.371 288.54 872.115 264.749 877.996 241.283C883.876 217.816 907.667 203.56 931.133 209.441C954.6 215.322 968.855 239.113 962.975 262.579Z" fill="#CA5A89"/>
<path d="M907.409 284.457C907.031 285.309 906.447 285.866 905.657 286.129C904.858 286.389 903.98 286.342 903.023 285.989C902.366 285.746 901.842 285.42 901.45 285.009C901.058 284.598 900.815 284.145 900.72 283.652C900.625 283.158 900.671 282.658 900.858 282.152C901.072 281.57 901.41 281.13 901.872 280.831C902.334 280.533 902.807 280.393 903.29 280.411L903.311 280.355C902.82 279.982 902.503 279.513 902.359 278.949C902.212 278.393 902.267 277.769 902.523 277.074C902.727 276.521 903.036 276.075 903.448 275.737C903.861 275.399 904.362 275.195 904.953 275.125C905.54 275.065 906.181 275.163 906.875 275.419C907.889 275.793 908.628 276.359 909.095 277.117C909.548 277.881 909.618 278.76 909.305 279.753L907.757 279.182C907.903 278.671 907.861 278.192 907.632 277.744C907.399 277.307 906.987 276.979 906.396 276.761C905.824 276.55 905.326 276.542 904.902 276.737C904.475 276.942 904.169 277.293 903.986 277.79C903.744 278.447 903.783 278.989 904.105 279.417C904.414 279.851 905 280.227 905.863 280.545L906.229 280.68L905.741 282.003L905.361 281.863C904.598 281.592 903.974 281.506 903.49 281.604C902.996 281.699 902.653 282.009 902.459 282.535C902.293 282.985 902.307 283.395 902.501 283.765C902.691 284.145 903.054 284.433 903.588 284.63C904.114 284.824 904.572 284.839 904.963 284.674C905.351 284.519 905.646 284.254 905.847 283.881L907.409 284.457Z" fill="#1C1C1C"/>
<path d="M890.256 274.138C889.496 273.33 888.988 272.476 888.732 271.577C888.462 270.677 888.465 269.79 888.739 268.914C888.999 268.037 889.515 267.236 890.287 266.51C891.059 265.783 891.887 265.32 892.77 265.121C893.647 264.914 894.526 264.973 895.407 265.297C896.274 265.62 897.088 266.186 897.849 266.995L900.182 269.475L892.589 276.618L890.256 274.138ZM896.833 267.951C895.997 267.062 895.116 266.607 894.19 266.586C893.264 266.565 892.364 266.965 891.49 267.788C890.609 268.617 890.143 269.501 890.093 270.441C890.043 271.38 890.436 272.294 891.272 273.182L892.434 274.417L897.995 269.185L896.833 267.951Z" fill="#1C1C1C"/>
<path d="M884.568 236.377L894.946 237.37L894.783 239.072L887.676 238.392L894.48 242.238L894.368 243.418L886.956 245.918L894.063 246.598L893.9 248.3L883.523 247.308L883.699 245.471L892.185 242.606L884.394 238.199L884.568 236.377Z" fill="#1C1C1C"/>
<path d="M902.045 232.097C901.574 232.719 901.008 233.174 900.348 233.464C899.68 233.748 898.983 233.84 898.255 233.74C897.52 233.634 896.814 233.323 896.137 232.809C895.468 232.301 894.986 231.704 894.693 231.016C894.399 230.328 894.306 229.624 894.414 228.902C894.522 228.181 894.815 227.506 895.293 226.876C895.771 226.247 896.343 225.784 897.008 225.485C897.674 225.187 898.378 225.088 899.119 225.186C899.861 225.284 900.566 225.588 901.235 226.096C901.904 226.604 902.382 227.205 902.67 227.901C902.958 228.597 903.046 229.316 902.933 230.06C902.819 230.789 902.523 231.468 902.045 232.097ZM900.863 231.199C901.129 230.849 901.293 230.459 901.356 230.029C901.424 229.592 901.364 229.15 901.174 228.705C900.985 228.26 900.651 227.856 900.174 227.493C899.696 227.13 899.224 226.917 898.758 226.852C898.285 226.781 897.849 226.833 897.452 227.009C897.055 227.185 896.724 227.448 896.458 227.798C896.192 228.149 896.027 228.539 895.965 228.968C895.908 229.39 895.981 229.815 896.182 230.245C896.376 230.668 896.711 231.061 897.189 231.424C897.898 231.962 898.584 232.2 899.246 232.138C899.906 232.062 900.445 231.749 900.863 231.199Z" fill="#1C1C1C"/>
<path d="M907.844 223.647C907.492 222.896 907.334 222.158 907.371 221.434C907.416 220.706 907.632 220.058 908.018 219.491C908.408 218.911 908.934 218.466 909.595 218.156C910.084 217.927 910.615 217.811 911.188 217.808C911.765 217.791 912.277 217.894 912.723 218.115L911.031 214.502L912.593 213.77L917.301 223.822L915.739 224.554L915.211 223.427C915.127 223.908 914.914 224.372 914.571 224.819C914.238 225.263 913.781 225.62 913.202 225.892C912.55 226.197 911.876 226.314 911.18 226.242C910.489 226.158 909.847 225.895 909.254 225.455C908.666 225.001 908.196 224.399 907.844 223.647ZM913.983 220.805C913.741 220.289 913.423 219.891 913.027 219.613C912.641 219.33 912.229 219.17 911.791 219.132C911.354 219.094 910.936 219.168 910.537 219.354C910.139 219.541 909.814 219.815 909.564 220.175C909.309 220.526 909.161 220.943 909.122 221.425C909.088 221.894 909.192 222.387 909.433 222.903C909.675 223.419 909.991 223.823 910.382 224.115C910.782 224.402 911.202 224.57 911.644 224.617C912.091 224.651 912.509 224.576 912.898 224.394C913.296 224.207 913.621 223.934 913.872 223.573C914.123 223.213 914.263 222.794 914.293 222.316C914.328 221.825 914.225 221.321 913.983 220.805Z" fill="#1C1C1C"/>
<path d="M930.482 221.207C930.468 221.517 930.435 221.796 930.384 222.044L924.076 221.756C924.095 222.417 924.316 222.958 924.737 223.378C925.159 223.797 925.689 224.022 926.328 224.051C927.247 224.093 927.914 223.738 928.329 222.986L930.172 223.07C929.888 223.818 929.405 224.422 928.723 224.881C928.052 225.331 927.232 225.534 926.263 225.49C925.473 225.453 924.772 225.246 924.159 224.868C923.556 224.48 923.089 223.958 922.759 223.302C922.439 222.637 922.298 221.88 922.337 221.031C922.376 220.182 922.579 219.445 922.948 218.821C923.327 218.188 923.835 217.711 924.47 217.389C925.115 217.068 925.843 216.926 926.652 216.963C927.431 216.999 928.117 217.2 928.711 217.568C929.305 217.935 929.758 218.437 930.069 219.071C930.381 219.696 930.519 220.408 930.482 221.207ZM928.724 220.587C928.742 219.957 928.541 219.442 928.118 219.042C927.696 218.643 927.16 218.428 926.511 218.398C925.922 218.372 925.409 218.538 924.972 218.899C924.535 219.249 924.263 219.742 924.153 220.378L928.724 220.587Z" fill="#1C1C1C"/>
<path d="M941.275 220.106L935.891 229.813L934.396 228.983L939.78 219.276L941.275 220.106Z" fill="#1C1C1C"/>
<path d="M950.798 229.01L942.44 236.315L941.315 235.027L949.672 227.722L950.798 229.01Z" fill="#1C1C1C"/>
<path d="M952.671 248.736C952.382 248.849 952.114 248.932 951.866 248.986L949.569 243.103C948.972 243.39 948.568 243.811 948.355 244.367C948.143 244.922 948.153 245.498 948.386 246.094C948.72 246.951 949.315 247.416 950.171 247.49L950.842 249.208C950.043 249.252 949.296 249.056 948.599 248.619C947.915 248.188 947.397 247.521 947.044 246.618C946.757 245.882 946.662 245.157 946.758 244.443C946.868 243.734 947.156 243.096 947.621 242.528C948.099 241.965 948.734 241.529 949.525 241.22C950.317 240.911 951.073 240.798 951.793 240.882C952.526 240.971 953.168 241.241 953.719 241.691C954.275 242.151 954.7 242.758 954.994 243.512C955.278 244.239 955.373 244.948 955.278 245.64C955.183 246.332 954.909 246.949 954.455 247.491C954.011 248.03 953.416 248.445 952.671 248.736ZM952.524 246.877C953.107 246.638 953.496 246.245 953.69 245.697C953.884 245.149 953.862 244.572 953.626 243.966C953.411 243.417 953.05 243.016 952.544 242.763C952.046 242.506 951.485 242.457 950.86 242.615L952.524 246.877Z" fill="#1C1C1C"/>
<path d="M953.987 257.656C954.384 257.942 954.679 258.299 954.872 258.728C955.074 259.167 955.15 259.671 955.101 260.238L953.337 260.083L953.375 259.65C953.434 258.983 953.309 258.46 953.001 258.081C952.692 257.713 952.12 257.492 951.283 257.418L946.95 257.037L947.099 255.334L955.333 256.058L955.183 257.761L953.987 257.656Z" fill="#1C1C1C"/>
<circle cx="920.485" cy="251.931" r="18.1361" transform="rotate(14.069 920.485 251.931)" stroke="black" stroke-width="3"/>
<path d="M923.301 238.622L924.003 248.841L933.939 251.33L924.437 255.156L925.14 265.374L918.565 257.52L909.064 261.346L914.502 252.666L907.928 244.812L917.863 247.302L923.301 238.622Z" fill="#1C1C1C"/>
<path d="M271.447 64.8255C265.567 88.2918 241.776 102.548 218.31 96.6669C194.843 90.7861 180.587 66.9955 186.468 43.5291C192.349 20.0628 216.14 5.8069 239.606 11.6877C263.072 17.5685 277.328 41.3591 271.447 64.8255Z" fill="#CA5A89"/>
<path d="M264.384 65.9627L257.938 64.3473C257.172 64.1553 256.545 64.2095 256.058 64.51C255.567 64.8201 255.232 65.3341 255.053 66.0519C254.87 66.7794 254.923 67.3906 255.212 67.8856C255.497 68.3902 256.024 68.7386 256.79 68.9306L263.236 70.5459L262.82 72.2046L256.403 70.5966C255.579 70.39 254.925 70.0355 254.443 69.5332C253.961 69.0308 253.654 68.4437 253.524 67.7718C253.393 67.0999 253.419 66.4002 253.601 65.6727C253.784 64.9452 254.091 64.316 254.523 63.7851C254.952 63.2639 255.497 62.9004 256.157 62.6946C256.817 62.4889 257.559 62.4893 258.383 62.6959L264.8 64.304L264.384 65.9627Z" fill="#1C1C1C"/>
<path d="M254.887 81.0537L247.101 74.1213L248.238 72.8441L256.024 79.7766L254.887 81.0537Z" fill="#1C1C1C"/>
<path d="M242.672 93.3621L238.208 76.6753L239.682 75.87L244.16 92.5497L242.672 93.3621Z" fill="#1C1C1C"/>
<path d="M228.401 91.5309L227.973 84.8998C227.922 84.1114 227.679 83.5308 227.244 83.1581C226.799 82.786 226.208 82.6238 225.469 82.6715C224.721 82.7198 224.155 82.9568 223.771 83.3824C223.378 83.8086 223.207 84.4159 223.258 85.2043L223.686 91.8355L221.98 91.9457L221.553 85.3444C221.498 84.4962 221.637 83.7658 221.968 83.1531C222.299 82.5405 222.765 82.0695 223.365 81.7402C223.965 81.4108 224.639 81.222 225.387 81.1736C226.136 81.1253 226.829 81.2259 227.466 81.4753C228.094 81.7254 228.606 82.1332 229.003 82.6988C229.4 83.2643 229.626 83.9712 229.681 84.8195L230.108 91.4207L228.401 91.5309Z" fill="#1C1C1C"/>
<path d="M210.318 80.8996L209.497 74.8237L211.249 75.6111L211.846 80.0244L215.408 77.4811L217.145 78.2623L212.055 81.6808L212.884 87.7765L211.132 86.9892L210.533 82.5424L206.946 85.1069L205.209 84.3257L210.318 80.8996Z" fill="#1C1C1C"/>
<path d="M192.166 61.5371C191.816 60.4838 191.714 59.4956 191.86 58.5723C191.993 57.6426 192.368 56.8381 192.985 56.1586C193.59 55.4728 194.395 54.9626 195.401 54.628C196.407 54.2935 197.352 54.2213 198.238 54.4116C199.12 54.5924 199.893 55.0151 200.556 55.6796C201.207 56.3378 201.708 57.1935 202.058 58.2468L203.133 61.4777L193.241 64.7681L192.166 61.5371ZM200.735 58.687C200.35 57.5294 199.741 56.7464 198.91 56.3379C198.078 55.9294 197.093 55.9146 195.955 56.2933C194.807 56.6752 194.012 57.2819 193.572 58.1133C193.132 58.9447 193.105 59.9392 193.49 61.0968L194.025 62.7052L201.27 60.2954L200.735 58.687Z" fill="#1C1C1C"/>
<path d="M199.981 39.8567C200.286 39.9146 200.557 39.9865 200.795 40.0724L199.617 46.2765C200.275 46.3505 200.841 46.2087 201.316 45.8511C201.791 45.4934 202.088 45.0002 202.208 44.3715C202.38 43.4676 202.123 42.7572 201.437 42.2402L201.781 40.4276C202.481 40.815 203.01 41.3786 203.369 42.1185C203.719 42.8466 203.804 43.6872 203.623 44.6401C203.475 45.4163 203.171 46.0811 202.709 46.6348C202.24 47.1767 201.657 47.5648 200.961 47.7991C200.258 48.0217 199.488 48.0537 198.653 47.8951C197.818 47.7365 197.118 47.4305 196.552 46.9771C195.979 46.5119 195.578 45.9422 195.35 45.2677C195.124 44.5835 195.086 43.8435 195.237 43.0477C195.383 42.2814 195.68 41.6303 196.127 41.0945C196.575 40.5586 197.136 40.1815 197.808 39.9632C198.471 39.7429 199.195 39.7075 199.981 39.8567ZM199.118 41.5096C198.497 41.4019 197.959 41.5287 197.503 41.8901C197.048 42.2515 196.759 42.7515 196.638 43.3901C196.528 43.9697 196.621 44.5013 196.915 44.9848C197.201 45.4665 197.65 45.8063 198.264 46.0043L199.118 41.5096Z" fill="#1C1C1C"/>
<path d="M210.164 34.8101C209.771 35.3278 209.326 35.7241 208.828 35.9992C208.329 36.2602 207.829 36.3893 207.329 36.3863C206.821 36.3773 206.362 36.2296 205.951 35.9431L207.022 34.5334C207.319 34.7212 207.653 34.7682 208.026 34.6744C208.397 34.5666 208.721 34.3295 208.999 33.9632C209.29 33.5809 209.442 33.2318 209.456 32.9158C209.467 32.5859 209.358 32.3333 209.127 32.1579C208.88 31.9704 208.606 31.9508 208.305 32.099C208.01 32.2393 207.598 32.5098 207.067 32.9107C206.557 33.3017 206.12 33.6041 205.757 33.8179C205.394 34.0318 204.993 34.1544 204.555 34.1858C204.123 34.2093 203.692 34.0577 203.262 33.7311C202.911 33.4651 202.671 33.1196 202.542 32.6949C202.404 32.264 202.397 31.794 202.52 31.2847C202.649 30.7675 202.904 30.258 203.285 29.7562C203.854 29.0076 204.501 28.5514 205.228 28.3877C205.953 28.21 206.654 28.3532 207.332 28.8172L206.298 30.1791C205.985 29.9792 205.659 29.9203 205.321 30.0023C204.982 30.0843 204.674 30.3085 204.396 30.6748C204.124 31.0332 203.983 31.3594 203.973 31.6533C203.963 31.9473 204.07 32.1789 204.293 32.3482C204.468 32.4813 204.664 32.5294 204.88 32.4927C205.096 32.456 205.31 32.3733 205.52 32.2445C205.723 32.1097 206.012 31.9024 206.388 31.6226C206.878 31.2415 207.306 30.9511 207.671 30.7512C208.035 30.5374 208.428 30.4157 208.852 30.3862C209.277 30.3567 209.703 30.4983 210.131 30.8108C210.505 31.095 210.761 31.4526 210.899 31.8834C211.036 32.3142 211.043 32.7842 210.92 33.2935C210.803 33.7948 210.551 34.3004 210.164 34.8101Z" fill="#1C1C1C"/>
<path d="M213.792 21.2904C213.518 21.435 213.239 21.4634 212.955 21.3757C212.672 21.2879 212.457 21.1069 212.313 20.8327C212.168 20.5585 212.14 20.2795 212.228 19.9958C212.315 19.7121 212.496 19.4979 212.771 19.3533C213.036 19.2134 213.31 19.1873 213.594 19.2751C213.878 19.3628 214.092 19.5438 214.237 19.818C214.381 20.0922 214.41 20.3712 214.322 20.6549C214.234 20.9386 214.058 21.1505 213.792 21.2904ZM215.046 21.8671L218.902 29.1776L217.389 29.9753L213.533 22.6648L215.046 21.8671Z" fill="#1C1C1C"/>
<path d="M228.419 18.6918C229.052 18.6028 229.63 18.6528 230.151 18.8421C230.681 19.0201 231.111 19.2777 231.442 19.6151L231.275 18.4267L232.983 18.1866L234.152 26.5049C234.258 27.2575 234.193 27.9482 233.959 28.577C233.725 29.2157 233.33 29.7458 232.773 30.1674C232.227 30.5876 231.537 30.8562 230.705 30.9731C229.596 31.129 228.638 30.996 227.832 30.5742C227.027 30.1622 226.512 29.5176 226.288 28.6403L227.966 28.4044C228.155 28.8121 228.475 29.1155 228.927 29.3145C229.391 29.522 229.914 29.5847 230.499 29.5026C231.182 29.4065 231.702 29.1213 232.06 28.6469C232.427 28.1712 232.555 27.5372 232.444 26.745L232.252 25.3784C232.019 25.805 231.674 26.1867 231.216 26.5237C230.767 26.8494 230.231 27.0561 229.607 27.1438C228.894 27.244 228.215 27.1576 227.571 26.8846C226.935 26.6003 226.399 26.1607 225.962 25.5658C225.533 24.9595 225.261 24.2454 225.145 23.4235C225.03 22.6016 225.096 21.8501 225.344 21.169C225.601 20.4865 225.998 19.9309 226.533 19.5022C227.077 19.0622 227.706 18.7921 228.419 18.6918ZM231.849 22.5116C231.769 21.9471 231.582 21.4737 231.286 21.0912C230.999 20.7073 230.653 20.4328 230.246 20.2679C229.839 20.1029 229.418 20.051 228.982 20.1123C228.546 20.1735 228.155 20.3395 227.81 20.6103C227.463 20.8711 227.2 21.2262 227.02 21.6755C226.85 22.1135 226.804 22.6148 226.883 23.1792C226.963 23.7437 227.146 24.2228 227.434 24.6166C227.731 25.009 228.084 25.2927 228.493 25.4675C228.909 25.6311 229.331 25.683 229.756 25.6231C230.192 25.5619 230.583 25.3959 230.929 25.1251C231.274 24.8544 231.532 24.495 231.701 24.0471C231.879 23.5879 231.928 23.076 231.849 22.5116Z" fill="#1C1C1C"/>
<path d="M245.843 22.8387C246.455 23.059 246.955 23.3826 247.343 23.8094C247.741 24.2397 247.986 24.7533 248.079 25.3502C248.173 25.9472 248.092 26.5984 247.838 27.304L246.185 31.8904L244.591 31.3159L246.157 26.9694C246.408 26.2732 246.425 25.679 246.209 25.1866C245.997 24.6849 245.589 24.3256 244.987 24.1086C244.385 23.8917 243.837 23.907 243.344 24.1545C242.864 24.396 242.498 24.8649 242.248 25.5611L240.682 29.9076L239.073 29.328L241.874 21.5523L243.483 22.1319L243.163 23.0209C243.541 22.7959 243.965 22.667 244.434 22.634C244.913 22.6043 245.382 22.6726 245.843 22.8387Z" fill="#1C1C1C"/>
<path d="M257.743 39.5123C257.514 39.7214 257.294 39.8955 257.083 40.0345L252.823 35.3722C252.37 35.8543 252.144 36.3926 252.145 36.9872C252.147 37.5819 252.363 38.1155 252.795 38.588C253.415 39.2672 254.138 39.4874 254.963 39.2486L256.207 40.6108C255.477 40.9388 254.709 41.0244 253.902 40.8677C253.109 40.7115 252.386 40.2754 251.732 39.5592C251.199 38.976 250.849 38.3337 250.683 37.6325C250.53 36.932 250.569 36.233 250.799 35.5355C251.042 34.8387 251.478 34.2037 252.106 33.6304C252.733 33.0571 253.398 32.6801 254.1 32.4994C254.816 32.3194 255.512 32.3403 256.189 32.562C256.872 32.791 257.487 33.2046 258.033 33.8026C258.559 34.3785 258.902 35.0062 259.063 35.6859C259.223 36.3656 259.189 37.04 258.961 37.7092C258.74 38.3717 258.334 38.9727 257.743 39.5123ZM256.938 37.8302C257.396 37.3979 257.617 36.8912 257.601 36.31C257.585 35.7289 257.358 35.1983 256.919 34.7185C256.521 34.2829 256.04 34.0382 255.477 33.9844C254.92 33.9239 254.379 34.0799 253.852 34.4525L256.938 37.8302Z" fill="#1C1C1C"/>
<path d="M262.303 47.5516C262.776 47.6755 263.18 47.9026 263.514 48.2328C263.861 48.5699 264.113 49.0123 264.271 49.56L262.571 50.0503L262.45 49.6323C262.265 48.9885 261.96 48.5456 261.536 48.3034C261.115 48.0709 260.501 48.071 259.694 48.3037L255.514 49.5086L255.041 47.8655L262.982 45.5761L263.456 47.2192L262.303 47.5516Z" fill="#1C1C1C"/>
<path d="M231.774 40.8686L232.476 51.0871L242.412 53.577L232.91 57.4025L233.612 67.6209L227.038 59.7668L217.537 63.5923L222.975 54.9126L216.401 47.0584L226.336 49.5483L231.774 40.8686Z" fill="black"/>
<circle cx="228.958" cy="54.1774" r="18.1361" transform="rotate(14.069 228.958 54.1774)" stroke="#1C1C1C" stroke-width="3"/>
</svg>
