<svg width="1728" height="962" viewBox="0 0 1728 962" fill="none" xmlns="http://www.w3.org/2000/svg">
<path d="M2.00001 20C2.00001 20 527.635 124.174 446.727 282.636C365.82 441.098 1313.17 518.825 1047.36 406.022C781.561 293.218 1302.39 1032.43 1419.78 810.401C1537.17 588.373 1725.5 793 1725.5 793" stroke="#50724B" stroke-width="3"/>
<path d="M1556.93 728.032C1552.1 747.606 1532.55 759.498 1513.26 754.592C1493.98 749.687 1482.26 729.842 1487.09 710.268C1491.93 690.694 1511.48 678.803 1530.76 683.709C1550.05 688.614 1561.76 708.458 1556.93 728.032Z" fill="#CA5A89"/>
<path d="M1489.98 715.245L1491.37 715.096L1491.83 719.507L1494.88 719.177L1494.52 715.738L1495.9 715.589L1496.26 719.028L1500.79 718.54L1500.96 720.245L1490.62 721.36L1489.98 715.245Z" fill="#1C1C1C"/>
<path d="M1496.42 707.091C1496.11 706.714 1495.91 706.294 1495.82 705.83C1495.73 705.353 1495.78 704.845 1495.96 704.306L1497.63 704.895L1497.49 705.306C1497.27 705.94 1497.27 706.479 1497.48 706.923C1497.69 707.357 1498.19 707.714 1498.98 707.994L1503.09 709.441L1502.54 711.058L1494.74 708.308L1495.29 706.691L1496.42 707.091Z" fill="#1C1C1C"/>
<path d="M1509.44 701.545C1508.92 702.13 1508.33 702.54 1507.66 702.777C1506.97 703.007 1506.28 703.042 1505.56 702.882C1504.84 702.715 1504.17 702.345 1503.53 701.774C1502.91 701.209 1502.48 700.569 1502.24 699.855C1502 699.14 1501.96 698.425 1502.12 697.71C1502.28 696.995 1502.62 696.342 1503.14 695.749C1503.65 695.157 1504.26 694.739 1504.94 694.495C1505.62 694.25 1506.32 694.208 1507.05 694.368C1507.78 694.527 1508.45 694.89 1509.08 695.454C1509.7 696.019 1510.13 696.663 1510.36 697.385C1510.6 698.107 1510.63 698.836 1510.47 699.573C1510.3 700.295 1509.96 700.953 1509.44 701.545ZM1508.33 700.546C1508.62 700.217 1508.81 699.839 1508.91 699.413C1509.01 698.979 1508.98 698.531 1508.82 698.069C1508.67 697.606 1508.37 697.173 1507.92 696.77C1507.48 696.367 1507.02 696.113 1506.57 696.01C1506.1 695.9 1505.67 695.917 1505.26 696.06C1504.86 696.204 1504.51 696.441 1504.22 696.77C1503.93 697.1 1503.74 697.478 1503.65 697.904C1503.56 698.323 1503.6 698.756 1503.77 699.203C1503.93 699.644 1504.23 700.066 1504.68 700.469C1505.34 701.068 1506 701.363 1506.66 701.355C1507.32 701.333 1507.88 701.064 1508.33 700.546Z" fill="#1C1C1C"/>
<path d="M1516.52 689.286C1517.12 689.054 1517.71 688.974 1518.28 689.046C1518.86 689.114 1519.37 689.345 1519.83 689.74C1520.28 690.135 1520.64 690.685 1520.91 691.39L1522.61 695.973L1521.04 696.578L1519.42 692.235C1519.16 691.539 1518.79 691.074 1518.31 690.839C1517.82 690.595 1517.28 690.588 1516.69 690.816C1516.09 691.045 1515.69 691.415 1515.47 691.927C1515.27 692.425 1515.29 693.023 1515.55 693.718L1517.17 698.062L1515.58 698.673L1512.68 690.902L1514.28 690.291L1514.61 691.18C1514.75 690.76 1514.99 690.384 1515.32 690.052C1515.66 689.716 1516.06 689.461 1516.52 689.286Z" fill="#1C1C1C"/>
<path d="M1528.39 691.329L1527.84 695.875C1527.8 696.183 1527.84 696.415 1527.97 696.572C1528.1 696.719 1528.34 696.815 1528.69 696.858L1529.73 696.988L1529.56 698.404L1528.22 698.237C1527.45 698.142 1526.89 697.89 1526.53 697.481C1526.16 697.073 1526.03 696.467 1526.13 695.662L1526.68 691.116L1525.71 690.995L1525.88 689.609L1526.85 689.73L1527.09 687.688L1528.8 687.901L1528.56 689.943L1530.55 690.192L1530.38 691.578L1528.39 691.329Z" fill="#1C1C1C"/>
<path d="M1542.01 700.913C1541.86 701.183 1541.71 701.418 1541.55 701.616L1536.07 698.47C1535.79 699.071 1535.74 699.655 1535.93 700.223C1536.12 700.791 1536.49 701.235 1537.05 701.554C1537.85 702.012 1538.6 702 1539.31 701.517L1540.91 702.437C1540.32 702.975 1539.62 703.294 1538.81 703.392C1538.01 703.487 1537.19 703.293 1536.35 702.81C1535.66 702.416 1535.13 701.91 1534.75 701.291C1534.39 700.668 1534.21 699.988 1534.2 699.25C1534.22 698.509 1534.43 697.767 1534.84 697.026C1535.25 696.284 1535.76 695.719 1536.37 695.33C1536.99 694.938 1537.65 694.743 1538.36 694.746C1539.08 694.755 1539.79 694.961 1540.49 695.364C1541.17 695.753 1541.69 696.247 1542.06 696.848C1542.42 697.448 1542.6 698.104 1542.6 698.814C1542.6 699.515 1542.4 700.215 1542.01 700.913ZM1540.72 699.553C1541.02 698.998 1541.07 698.446 1540.87 697.895C1540.68 697.344 1540.29 696.907 1539.73 696.583C1539.22 696.289 1538.68 696.204 1538.14 696.326C1537.59 696.439 1537.13 696.755 1536.75 697.274L1540.72 699.553Z" fill="#1C1C1C"/>
<path d="M1549.33 706.787C1549.69 707.33 1549.9 707.89 1549.96 708.469C1550.03 709.055 1549.93 709.619 1549.65 710.16C1549.38 710.701 1548.93 711.183 1548.32 711.606L1544.31 714.354L1543.37 712.938L1547.16 710.334C1547.77 709.916 1548.13 709.443 1548.25 708.915C1548.37 708.38 1548.25 707.845 1547.9 707.311C1547.54 706.776 1547.09 706.463 1546.55 706.371C1546.03 706.282 1545.46 706.446 1544.85 706.863L1541.06 709.468L1540.1 708.039L1546.9 703.38L1547.85 704.808L1547.07 705.341C1547.51 705.383 1547.92 705.53 1548.32 705.782C1548.72 706.043 1549.05 706.378 1549.33 706.787Z" fill="#1C1C1C"/>
<path d="M1547.11 716.777C1547.94 716.682 1548.68 716.767 1549.36 717.032C1550.03 717.307 1550.57 717.719 1550.98 718.266C1551.41 718.823 1551.66 719.465 1551.74 720.192C1551.8 720.729 1551.74 721.271 1551.56 721.817C1551.39 722.371 1551.13 722.825 1550.78 723.178L1554.74 722.721L1554.93 724.439L1543.93 725.711L1543.74 723.993L1544.97 723.85C1544.54 723.617 1544.17 723.266 1543.86 722.798C1543.55 722.34 1543.35 721.792 1543.28 721.155C1543.2 720.438 1543.31 719.759 1543.6 719.121C1543.9 718.491 1544.35 717.964 1544.95 717.541C1545.57 717.127 1546.29 716.872 1547.11 716.777ZM1547.84 723.518C1548.4 723.453 1548.88 723.277 1549.27 722.99C1549.66 722.713 1549.94 722.372 1550.12 721.968C1550.3 721.565 1550.36 721.144 1550.31 720.705C1550.26 720.267 1550.11 719.871 1549.84 719.518C1549.59 719.164 1549.25 718.891 1548.8 718.7C1548.37 718.518 1547.87 718.46 1547.31 718.525C1546.74 718.59 1546.26 718.762 1545.86 719.04C1545.46 719.329 1545.17 719.675 1544.98 720.08C1544.81 720.494 1544.75 720.915 1544.79 721.343C1544.84 721.781 1545 722.177 1545.26 722.53C1545.52 722.884 1545.87 723.151 1546.31 723.332C1546.77 723.522 1547.27 723.584 1547.84 723.518Z" fill="#1C1C1C"/>
<path d="M1536.21 722.763C1534.24 730.751 1526.27 735.572 1518.45 733.582C1510.62 731.592 1505.84 723.527 1507.81 715.539C1509.79 707.551 1517.75 702.729 1525.57 704.719C1533.4 706.709 1538.18 714.774 1536.21 722.763Z" stroke="black" stroke-width="3"/>
<path d="M1524.33 708.049L1524.9 716.573L1533.07 718.65L1525.26 721.841L1525.84 730.364L1520.43 723.813L1512.63 727.004L1517.1 719.764L1511.69 713.212L1519.86 715.289L1524.33 708.049Z" fill="#1C1C1C"/>
<path d="M888.516 462.985C883.683 482.559 864.133 494.451 844.848 489.545C825.564 484.64 813.849 464.796 818.681 445.222C823.514 425.648 843.065 413.756 862.349 418.662C881.634 423.567 893.349 443.411 888.516 462.985Z" fill="#CA5A89"/>
<path d="M842.525 481.687C842.151 482.539 841.571 483.095 840.784 483.356C839.988 483.612 839.112 483.562 838.156 483.203C837.5 482.958 836.976 482.628 836.583 482.214C836.191 481.8 835.946 481.346 835.849 480.851C835.752 480.356 835.796 479.855 835.98 479.348C836.192 478.765 836.528 478.326 836.987 478.028C837.447 477.731 837.917 477.592 838.4 477.613L838.42 477.557C837.929 477.18 837.61 476.709 837.465 476.142C837.316 475.585 837.368 474.959 837.621 474.264C837.822 473.71 838.128 473.264 838.538 472.927C838.948 472.59 839.447 472.388 840.036 472.32C840.622 472.262 841.261 472.363 841.955 472.623C842.967 473.002 843.707 473.572 844.175 474.334C844.631 475.103 844.705 475.984 844.396 476.978L842.85 476.399C842.993 475.887 842.95 475.407 842.719 474.957C842.485 474.518 842.073 474.187 841.482 473.966C840.911 473.752 840.414 473.742 839.992 473.936C839.567 474.139 839.263 474.49 839.083 474.988C838.844 475.645 838.885 476.189 839.208 476.619C839.518 477.056 840.104 477.435 840.966 477.758L841.332 477.895L840.851 479.219L840.471 479.077C839.708 478.802 839.086 478.713 838.604 478.81C838.112 478.903 837.77 479.212 837.579 479.738C837.415 480.189 837.431 480.6 837.626 480.972C837.817 481.353 838.18 481.644 838.714 481.844C839.239 482.041 839.696 482.057 840.086 481.894C840.472 481.739 840.765 481.476 840.965 481.102L842.525 481.687Z" fill="#1C1C1C"/>
<path d="M827.582 472.655C826.825 471.838 826.318 470.977 826.062 470.07C825.792 469.163 825.792 468.268 826.062 467.386C826.317 466.504 826.827 465.698 827.592 464.968C828.356 464.239 829.176 463.774 830.052 463.576C830.921 463.37 831.793 463.432 832.669 463.76C833.531 464.089 834.34 464.661 835.097 465.478L837.419 467.983L829.904 475.16L827.582 472.655ZM834.091 466.438C833.259 465.541 832.384 465.08 831.465 465.056C830.546 465.032 829.654 465.433 828.788 466.26C827.916 467.093 827.457 467.982 827.41 468.929C827.363 469.875 827.755 470.797 828.587 471.695L829.743 472.942L835.247 467.686L834.091 466.438Z" fill="#1C1C1C"/>
<path d="M823.443 439.037L833.808 440.043L833.647 441.747L826.548 441.058L833.349 444.916L833.237 446.097L825.838 448.592L832.937 449.282L832.777 450.986L822.411 449.979L822.585 448.141L831.057 445.282L823.271 440.86L823.443 439.037Z" fill="#1C1C1C"/>
<path d="M839.722 437.546C839.256 438.169 838.696 438.625 838.042 438.914C837.38 439.197 836.687 439.287 835.963 439.182C835.232 439.072 834.529 438.757 833.854 438.237C833.187 437.723 832.706 437.119 832.411 436.426C832.116 435.732 832.021 435.023 832.125 434.297C832.23 433.572 832.518 432.894 832.99 432.263C833.462 431.632 834.028 431.168 834.688 430.871C835.349 430.574 836.047 430.477 836.785 430.579C837.522 430.681 838.224 430.989 838.891 431.503C839.558 432.017 840.036 432.625 840.325 433.327C840.614 434.028 840.705 434.752 840.596 435.5C840.486 436.233 840.195 436.915 839.722 437.546ZM838.543 436.637C838.806 436.286 838.968 435.894 839.028 435.462C839.094 435.022 839.032 434.578 838.842 434.129C838.652 433.68 838.319 433.272 837.842 432.905C837.366 432.538 836.896 432.321 836.433 432.254C835.962 432.18 835.53 432.231 835.136 432.406C834.742 432.581 834.414 432.844 834.151 433.196C833.888 433.547 833.727 433.939 833.666 434.371C833.612 434.795 833.686 435.223 833.888 435.656C834.082 436.083 834.417 436.48 834.894 436.847C835.601 437.392 836.283 437.634 836.941 437.575C837.597 437.501 838.131 437.189 838.543 436.637Z" fill="#1C1C1C"/>
<path d="M843.378 430.646C843.029 429.89 842.873 429.147 842.91 428.419C842.956 427.686 843.171 427.034 843.555 426.462C843.943 425.878 844.466 425.429 845.123 425.117C845.609 424.886 846.137 424.768 846.706 424.765C847.279 424.747 847.788 424.85 848.231 425.073L846.553 421.437L848.106 420.699L852.772 430.813L851.22 431.551L850.696 430.416C850.613 430.901 850.4 431.368 850.06 431.819C849.728 432.265 849.274 432.626 848.698 432.9C848.05 433.208 847.38 433.326 846.689 433.255C846.003 433.17 845.365 432.907 844.777 432.464C844.193 432.008 843.727 431.402 843.378 430.646ZM849.479 427.779C849.24 427.259 848.924 426.86 848.531 426.58C848.147 426.295 847.738 426.134 847.304 426.097C846.869 426.059 846.454 426.134 846.058 426.322C845.662 426.511 845.339 426.786 845.09 427.149C844.836 427.503 844.69 427.923 844.65 428.408C844.615 428.88 844.718 429.376 844.958 429.895C845.197 430.414 845.511 430.821 845.899 431.114C846.296 431.403 846.713 431.571 847.152 431.618C847.596 431.652 848.011 431.576 848.398 431.393C848.794 431.204 849.117 430.929 849.366 430.566C849.616 430.203 849.756 429.78 849.786 429.299C849.821 428.805 849.719 428.298 849.479 427.779Z" fill="#1C1C1C"/>
<path d="M863.346 428.663C863.332 428.973 863.299 429.252 863.248 429.5L856.949 429.208C856.969 429.871 857.189 430.412 857.61 430.833C858.031 431.253 858.561 431.478 859.199 431.508C860.117 431.55 860.783 431.195 861.196 430.443L863.037 430.528C862.753 431.277 862.271 431.881 861.591 432.341C860.921 432.791 860.102 432.993 859.134 432.948C858.346 432.912 857.646 432.704 857.033 432.325C856.431 431.936 855.965 431.413 855.634 430.756C855.314 430.09 855.174 429.332 855.212 428.481C855.25 427.631 855.453 426.894 855.821 426.269C856.2 425.635 856.706 425.157 857.34 424.836C857.984 424.515 858.71 424.373 859.518 424.411C860.296 424.447 860.982 424.649 861.575 425.017C862.169 425.385 862.621 425.887 862.932 426.523C863.244 427.149 863.382 427.862 863.346 428.663ZM861.589 428.04C861.608 427.409 861.406 426.894 860.984 426.493C860.562 426.093 860.027 425.878 859.379 425.848C858.79 425.82 858.278 425.987 857.842 426.348C857.406 426.698 857.134 427.192 857.026 427.829L861.589 428.04Z" fill="#1C1C1C"/>
<path d="M871.606 426.916L866.293 436.64L864.8 435.8L870.113 426.076L871.606 426.916Z" fill="#1C1C1C"/>
<path d="M879.575 434.7L871.299 442.042L870.179 440.742L878.455 433.4L879.575 434.7Z" fill="#1C1C1C"/>
<path d="M880.396 452.899C880.108 453.013 879.842 453.097 879.596 453.152L877.32 447.238C876.727 447.528 876.324 447.952 876.112 448.511C875.9 449.07 875.909 449.649 876.14 450.248C876.471 451.11 877.062 451.577 877.912 451.65L878.577 453.377C877.783 453.422 877.04 453.226 876.348 452.788C875.669 452.356 875.155 451.685 874.806 450.777C874.521 450.037 874.427 449.308 874.524 448.59C874.635 447.877 874.921 447.234 875.385 446.662C875.861 446.096 876.492 445.656 877.28 445.344C878.067 445.032 878.819 444.917 879.534 445.001C880.263 445.09 880.901 445.36 881.448 445.812C882 446.274 882.421 446.883 882.713 447.642C882.994 448.372 883.087 449.085 882.992 449.782C882.897 450.478 882.623 451.099 882.171 451.645C881.729 452.187 881.137 452.605 880.396 452.899ZM880.253 451.029C880.833 450.789 881.22 450.392 881.413 449.841C881.607 449.289 881.586 448.709 881.352 448.101C881.139 447.548 880.781 447.145 880.278 446.891C879.784 446.634 879.226 446.585 878.604 446.746L880.253 451.029Z" fill="#1C1C1C"/>
<path d="M881.328 459.372C881.724 459.659 882.019 460.017 882.212 460.446C882.415 460.886 882.492 461.391 882.442 461.959L880.681 461.802L880.719 461.368C880.777 460.7 880.652 460.176 880.344 459.797C880.035 459.428 879.462 459.206 878.627 459.131L874.299 458.745L874.446 457.039L882.67 457.773L882.522 459.479L881.328 459.372Z" fill="#1C1C1C"/>
<path d="M867.798 457.715C865.825 465.704 857.86 470.525 850.036 468.535C842.212 466.545 837.428 458.48 839.4 450.492C841.372 442.503 849.338 437.682 857.162 439.672C864.986 441.662 869.77 449.727 867.798 457.715Z" stroke="black" stroke-width="3"/>
<path d="M855.913 443.002L856.49 451.526L864.655 453.603L856.847 456.794L857.424 465.317L852.021 458.766L844.213 461.957L848.682 454.717L843.279 448.165L851.444 450.242L855.913 443.002Z" fill="#1C1C1C"/>
<path d="M314.259 116.073C309.426 135.647 289.876 147.538 270.591 142.633C251.307 137.727 239.592 117.883 244.424 98.309C249.257 78.735 268.808 66.8437 288.092 71.7491C307.377 76.6545 319.092 96.4989 314.259 116.073Z" fill="#CA5A89"/>
<path d="M309.149 117.683L302.71 116.045C301.944 115.85 301.318 115.902 300.832 116.202C300.344 116.511 300.011 117.025 299.834 117.743C299.654 118.471 299.709 119.084 299.998 119.58C300.285 120.087 300.811 120.437 301.577 120.632L308.017 122.27L307.607 123.93L301.196 122.3C300.372 122.09 299.719 121.733 299.236 121.228C298.753 120.724 298.445 120.135 298.313 119.461C298.18 118.788 298.204 118.087 298.384 117.359C298.563 116.631 298.868 116.002 299.298 115.471C299.725 114.95 300.268 114.588 300.926 114.384C301.584 114.18 302.325 114.183 303.149 114.392L309.559 116.023L309.149 117.683Z" fill="#1C1C1C"/>
<path d="M300.966 130.539L293.209 123.529L294.334 122.247L302.091 129.257L300.966 130.539Z" fill="#1C1C1C"/>
<path d="M290.328 141.769L285.903 124.965L287.367 124.154L291.805 140.95L290.328 141.769Z" fill="#1C1C1C"/>
<path d="M278.446 139.279L278.023 132.634C277.973 131.844 277.731 131.263 277.297 130.89C276.853 130.517 276.263 130.355 275.526 130.403C274.779 130.452 274.215 130.69 273.832 131.117C273.439 131.544 273.268 132.153 273.318 132.943L273.741 139.588L272.038 139.699L271.617 133.084C271.563 132.234 271.701 131.502 272.032 130.888C272.363 130.274 272.828 129.802 273.427 129.471C274.026 129.141 274.699 128.951 275.446 128.902C276.193 128.853 276.884 128.953 277.52 129.203C278.146 129.453 278.657 129.862 279.053 130.428C279.449 130.995 279.674 131.703 279.728 132.553L280.149 139.168L278.446 139.279Z" fill="#1C1C1C"/>
<path d="M263.058 129.074L262.212 122.974L263.961 123.772L264.577 128.203L268.115 125.668L269.85 126.46L264.793 129.866L265.646 135.986L263.897 135.188L263.28 130.723L259.716 133.28L257.981 132.488L263.058 129.074Z" fill="#1C1C1C"/>
<path d="M248.06 112.869C247.714 111.811 247.614 110.818 247.76 109.89C247.895 108.955 248.269 108.146 248.884 107.462C249.487 106.771 250.288 106.257 251.29 105.919C252.291 105.581 253.231 105.507 254.112 105.697C254.989 105.877 255.757 106.3 256.416 106.967C257.063 107.628 257.559 108.487 257.906 109.545L258.97 112.791L249.124 116.115L248.06 112.869ZM256.589 109.99C256.207 108.827 255.604 108.041 254.777 107.632C253.951 107.223 252.971 107.209 251.838 107.592C250.695 107.978 249.904 108.589 249.465 109.425C249.026 110.262 248.997 111.262 249.378 112.425L249.907 114.04L257.118 111.606L256.589 109.99Z" fill="#1C1C1C"/>
<path d="M256.039 93.867C256.343 93.9257 256.614 93.9983 256.852 94.085L255.69 100.295C256.347 100.37 256.912 100.23 257.386 99.8728C257.86 99.5158 258.155 99.0227 258.273 98.3933C258.442 97.4887 258.184 96.7766 257.498 96.2573L257.838 94.443C258.537 94.8327 259.067 95.3983 259.427 96.14C259.778 96.87 259.865 97.7119 259.686 98.6658C259.541 99.4426 259.239 100.108 258.779 100.661C258.312 101.203 257.731 101.59 257.036 101.823C256.334 102.044 255.566 102.074 254.731 101.913C253.897 101.752 253.197 101.444 252.632 100.989C252.058 100.522 251.656 99.9502 251.427 99.2743C251.199 98.5886 251.16 97.8475 251.309 97.051C251.453 96.284 251.747 95.6327 252.193 95.0972C252.639 94.5617 253.198 94.1854 253.869 93.9684C254.53 93.7495 255.253 93.7157 256.039 93.867ZM255.18 95.5201C254.56 95.4108 254.023 95.5365 253.569 95.8972C253.115 96.258 252.828 96.758 252.709 97.3972C252.6 97.9773 252.694 98.5099 252.989 98.9948C253.275 99.4778 253.725 99.8191 254.338 100.019L255.18 95.5201Z" fill="#1C1C1C"/>
<path d="M265.116 91.1012C264.728 91.6203 264.287 92.0172 263.793 92.2918C263.298 92.5523 262.802 92.6799 262.305 92.6747C261.8 92.6634 261.343 92.5127 260.934 92.2227L261.992 90.809C262.288 90.9992 262.621 91.048 262.991 90.9552C263.358 90.8484 263.68 90.6113 263.955 90.2438C264.241 89.8605 264.391 89.5098 264.403 89.192C264.414 88.8601 264.304 88.6054 264.074 88.4279C263.827 88.2382 263.555 88.2172 263.257 88.365C262.964 88.5049 262.556 88.7753 262.03 89.1763C261.525 89.5675 261.092 89.8698 260.732 90.0834C260.372 90.297 259.974 90.4186 259.539 90.4483C259.11 90.47 258.68 90.3156 258.252 89.9851C257.902 89.7158 257.662 89.3672 257.532 88.9392C257.393 88.5051 257.384 88.032 257.504 87.5201C257.63 87.0002 257.881 86.4887 258.258 85.9855C258.819 85.2347 259.461 84.7785 260.183 84.617C260.903 84.4414 261.6 84.5886 262.275 85.0585L261.253 86.4243C260.942 86.2218 260.618 86.1611 260.282 86.2421C259.946 86.3231 259.64 86.5473 259.365 86.9147C259.097 87.2741 258.958 87.6017 258.95 87.8975C258.941 88.1932 259.048 88.4267 259.27 88.5981C259.445 88.7327 259.64 88.7821 259.855 88.7461C260.069 88.7101 260.281 88.6278 260.49 88.4991C260.691 88.3644 260.977 88.1571 261.35 87.8772C261.835 87.4959 262.259 87.2055 262.621 87.0061C262.981 86.7925 263.372 86.6718 263.793 86.644C264.215 86.6162 264.639 86.7605 265.066 87.0768C265.439 87.3645 265.695 87.7254 265.833 88.1595C265.972 88.5936 265.981 89.0666 265.861 89.5785C265.747 90.0824 265.498 90.59 265.116 91.1012Z" fill="#1C1C1C"/>
<path d="M266.862 78.9824C266.59 79.1282 266.313 79.157 266.031 79.0687C265.749 78.9805 265.537 78.7984 265.393 78.5223C265.25 78.2463 265.222 77.9654 265.309 77.6796C265.397 77.3939 265.576 77.1781 265.849 77.0323C266.112 76.8912 266.385 76.8648 266.667 76.953C266.948 77.0412 267.161 77.2234 267.304 77.4994C267.448 77.7754 267.476 78.0563 267.388 78.3421C267.301 78.6279 267.126 78.8413 266.862 78.9824ZM268.107 79.5624L271.931 86.9219L270.428 87.7262L266.604 80.3666L268.107 79.5624Z" fill="#1C1C1C"/>
<path d="M279.597 76.9308C280.229 76.8406 280.804 76.8901 281.324 77.0792C281.852 77.257 282.281 77.5148 282.609 77.8527L282.444 76.6612L284.148 76.4181L285.303 84.7589C285.407 85.5135 285.342 86.2063 285.107 86.8372C284.874 87.4781 284.479 88.0103 283.924 88.4338C283.378 88.856 282.69 89.1262 281.861 89.2446C280.755 89.4024 279.8 89.2703 278.996 88.8483C278.194 88.4362 277.681 87.7904 277.459 86.9108L279.133 86.672C279.32 87.0806 279.639 87.3845 280.09 87.5835C280.552 87.791 281.074 87.8532 281.656 87.77C282.338 87.6728 282.857 87.3861 283.214 86.9099C283.581 86.4323 283.709 85.7963 283.599 85.0019L283.41 83.6317C283.177 84.0598 282.832 84.4431 282.376 84.7816C281.927 85.1088 281.392 85.3168 280.77 85.4056C280.059 85.507 279.383 85.4213 278.741 85.1483C278.107 84.8641 277.573 84.4239 277.138 83.8278C276.711 83.2204 276.441 82.5046 276.327 81.6804C276.213 80.8563 276.28 80.1025 276.527 79.4191C276.785 78.7343 277.181 78.1766 277.716 77.7459C278.259 77.3039 278.886 77.0322 279.597 76.9308ZM283.012 80.7571C282.933 80.1911 282.747 79.7165 282.452 79.3333C282.167 78.9486 281.822 78.6739 281.416 78.509C281.011 78.344 280.591 78.2926 280.156 78.3546C279.722 78.4166 279.332 78.5836 278.987 78.8555C278.641 79.1176 278.378 79.4741 278.199 79.9249C278.028 80.3644 277.982 80.8672 278.06 81.4332C278.138 81.9991 278.321 82.4794 278.607 82.874C278.903 83.2671 279.255 83.5511 279.661 83.726C280.077 83.8895 280.497 83.9409 280.921 83.8803C281.356 83.8183 281.746 83.6513 282.091 83.3794C282.436 83.1074 282.693 82.7467 282.862 82.2972C283.04 81.8364 283.09 81.3231 283.012 80.7571Z" fill="#1C1C1C"/>
<path d="M294.29 80.8398C294.901 81.0632 295.401 81.3897 295.79 81.8192C296.188 82.2522 296.435 82.7681 296.531 83.3669C296.626 83.9657 296.548 84.6182 296.298 85.3245L294.668 89.9155L293.075 89.333L294.62 84.9821C294.867 84.2852 294.882 83.6896 294.664 83.1951C294.45 82.6913 294.043 82.3294 293.441 82.1094C292.84 81.8894 292.294 81.9025 291.803 82.1486C291.325 82.3887 290.962 82.8572 290.714 83.5541L289.17 87.905L287.563 87.3173L290.326 79.5338L291.933 80.1215L291.617 81.0114C291.994 80.7874 292.416 80.6599 292.884 80.6287C293.361 80.601 293.829 80.6714 294.29 80.8398Z" fill="#1C1C1C"/>
<path d="M303.903 96.1911C303.677 96.4012 303.459 96.5761 303.249 96.7157L299.011 92.0066C298.562 92.4912 298.339 93.0331 298.342 93.6323C298.345 94.2315 298.561 94.7697 298.99 95.247C299.608 95.933 300.326 96.1568 301.143 95.9183L302.382 97.2941C301.658 97.6228 300.896 97.707 300.095 97.547C299.308 97.3876 298.589 96.9462 297.938 96.2229C297.408 95.6338 297.059 94.9858 296.892 94.2788C296.739 93.5724 296.776 92.8682 297.002 92.166C297.242 91.4644 297.673 90.8256 298.294 90.2495C298.915 89.6735 299.574 89.2953 300.27 89.1151C300.98 88.9355 301.671 88.9583 302.343 89.1835C303.021 89.416 303.633 89.8343 304.176 90.4383C304.7 91.02 305.042 91.6535 305.203 92.3388C305.364 93.0241 305.332 93.7036 305.107 94.3774C304.889 95.0443 304.488 95.6489 303.903 96.1911ZM303.1 94.494C303.554 94.0596 303.772 93.5496 303.754 92.9639C303.737 92.3783 303.51 91.8431 303.073 91.3584C302.677 90.9184 302.2 90.6706 301.64 90.615C301.088 90.5525 300.551 90.7084 300.029 91.0825L303.1 94.494Z" fill="#1C1C1C"/>
<path d="M307.129 102.054C307.599 102.177 308 102.405 308.333 102.736C308.678 103.074 308.928 103.518 309.084 104.068L307.391 104.563L307.272 104.144C307.088 103.497 306.786 103.053 306.364 102.81C305.946 102.577 305.335 102.578 304.531 102.814L300.369 104.032L299.9 102.382L307.808 100.068L308.277 101.718L307.129 102.054Z" fill="#1C1C1C"/>
<path d="M281.656 96.0898L282.233 104.613L290.398 106.69L282.59 109.881L283.167 118.405L277.764 111.853L269.956 115.044L274.425 107.804L269.022 101.253L277.187 103.33L281.656 96.0898Z" fill="black"/>
<path d="M293.541 110.803C291.568 118.791 283.603 123.613 275.779 121.623C267.955 119.632 263.171 111.568 265.143 103.579C267.115 95.5909 275.081 90.7694 282.905 92.7596C290.729 94.7498 295.513 102.814 293.541 110.803Z" stroke="#1C1C1C" stroke-width="3"/>
</svg>
