<svg width="1728" height="870" viewBox="0 0 1728 870" fill="none" xmlns="http://www.w3.org/2000/svg">
<path d="M0 2C408.042 177.949 214.865 458.761 550.277 435.982C818.606 417.759 1004.56 451.327 1077.69 558.939C1150.83 666.551 909.159 908.19 872.844 702C836.529 495.81 1728 868 1728 868" stroke="#50724B" stroke-width="3"/>
<path d="M265.259 188.073C260.426 207.647 240.876 219.538 221.591 214.633C202.307 209.727 190.592 189.883 195.425 170.309C200.257 150.735 219.808 138.844 239.092 143.749C258.377 148.654 270.092 168.499 265.259 188.073Z" fill="#CA5A89"/>
<path d="M260.149 189.683L253.71 188.045C252.944 187.85 252.318 187.903 251.832 188.202C251.344 188.511 251.011 189.025 250.834 189.743C250.654 190.471 250.709 191.084 250.998 191.58C251.285 192.087 251.811 192.437 252.577 192.632L259.017 194.27L258.607 195.93L252.196 194.3C251.372 194.09 250.719 193.733 250.236 193.228C249.753 192.724 249.445 192.135 249.313 191.461C249.18 190.788 249.204 190.087 249.384 189.359C249.563 188.631 249.868 188.002 250.298 187.471C250.725 186.95 251.268 186.588 251.926 186.384C252.584 186.18 253.325 186.183 254.149 186.392L260.559 188.023L260.149 189.683Z" fill="#1C1C1C"/>
<path d="M251.966 202.539L244.209 195.529L245.334 194.247L253.091 201.257L251.966 202.539Z" fill="#1C1C1C"/>
<path d="M241.328 213.769L236.903 196.965L238.367 196.154L242.805 212.95L241.328 213.769Z" fill="#1C1C1C"/>
<path d="M229.446 211.279L229.023 204.634C228.973 203.844 228.731 203.263 228.297 202.89C227.854 202.517 227.263 202.355 226.526 202.403C225.779 202.452 225.215 202.69 224.832 203.117C224.439 203.544 224.268 204.153 224.318 204.943L224.741 211.588L223.038 211.699L222.617 205.084C222.563 204.234 222.701 203.502 223.032 202.888C223.363 202.274 223.828 201.802 224.427 201.471C225.026 201.141 225.699 200.951 226.446 200.902C227.193 200.853 227.884 200.953 228.52 201.203C229.146 201.453 229.657 201.862 230.053 202.428C230.449 202.995 230.674 203.703 230.728 204.553L231.149 211.168L229.446 211.279Z" fill="#1C1C1C"/>
<path d="M214.058 201.074L213.212 194.974L214.961 195.772L215.577 200.203L219.115 197.668L220.85 198.46L215.793 201.866L216.646 207.986L214.897 207.188L214.28 202.723L210.716 205.28L208.981 204.488L214.058 201.074Z" fill="#1C1C1C"/>
<path d="M199.06 184.869C198.714 183.811 198.614 182.818 198.761 181.89C198.895 180.955 199.269 180.146 199.884 179.462C200.487 178.771 201.288 178.257 202.29 177.919C203.291 177.581 204.231 177.507 205.112 177.697C205.989 177.877 206.757 178.3 207.416 178.967C208.063 179.628 208.559 180.487 208.906 181.545L209.97 184.791L200.124 188.115L199.06 184.869ZM207.589 181.99C207.207 180.827 206.604 180.041 205.777 179.632C204.951 179.223 203.971 179.209 202.838 179.592C201.695 179.978 200.904 180.589 200.465 181.425C200.026 182.262 199.997 183.262 200.378 184.425L200.907 186.04L208.118 183.606L207.589 181.99Z" fill="#1C1C1C"/>
<path d="M207.039 165.867C207.343 165.926 207.614 165.998 207.852 166.085L206.69 172.295C207.347 172.37 207.913 172.23 208.386 171.873C208.86 171.516 209.155 171.023 209.273 170.393C209.442 169.489 209.184 168.777 208.498 168.257L208.838 166.443C209.538 166.833 210.067 167.398 210.427 168.14C210.778 168.87 210.865 169.712 210.686 170.666C210.541 171.443 210.239 172.108 209.779 172.661C209.312 173.203 208.731 173.59 208.037 173.823C207.334 174.044 206.566 174.074 205.732 173.913C204.897 173.752 204.197 173.444 203.632 172.989C203.058 172.522 202.657 171.95 202.427 171.274C202.199 170.589 202.16 169.847 202.309 169.051C202.453 168.284 202.747 167.633 203.193 167.097C203.639 166.562 204.198 166.185 204.869 165.968C205.53 165.749 206.253 165.716 207.039 165.867ZM206.18 167.52C205.56 167.411 205.023 167.536 204.569 167.897C204.115 168.258 203.828 168.758 203.709 169.397C203.6 169.977 203.694 170.51 203.989 170.995C204.275 171.478 204.725 171.819 205.338 172.019L206.18 167.52Z" fill="#1C1C1C"/>
<path d="M216.116 163.101C215.728 163.62 215.287 164.017 214.793 164.292C214.298 164.552 213.802 164.68 213.305 164.675C212.8 164.663 212.343 164.513 211.934 164.223L212.992 162.809C213.288 162.999 213.621 163.048 213.991 162.955C214.358 162.848 214.68 162.611 214.955 162.244C215.241 161.86 215.391 161.51 215.403 161.192C215.414 160.86 215.304 160.605 215.074 160.428C214.828 160.238 214.555 160.217 214.257 160.365C213.965 160.505 213.556 160.775 213.03 161.176C212.525 161.567 212.092 161.87 211.732 162.083C211.372 162.297 210.974 162.419 210.539 162.448C210.11 162.47 209.681 162.316 209.252 161.985C208.902 161.716 208.662 161.367 208.532 160.939C208.393 160.505 208.384 160.032 208.504 159.52C208.63 159 208.881 158.489 209.258 157.986C209.82 157.235 210.461 156.779 211.183 156.617C211.903 156.441 212.6 156.589 213.275 157.058L212.253 158.424C211.942 158.222 211.618 158.161 211.282 158.242C210.946 158.323 210.64 158.547 210.365 158.915C210.097 159.274 209.958 159.602 209.95 159.897C209.941 160.193 210.048 160.427 210.27 160.598C210.445 160.733 210.64 160.782 210.855 160.746C211.069 160.71 211.281 160.628 211.49 160.499C211.691 160.364 211.977 160.157 212.35 159.877C212.835 159.496 213.259 159.206 213.621 159.006C213.981 158.792 214.372 158.672 214.793 158.644C215.215 158.616 215.639 158.76 216.066 159.077C216.439 159.364 216.695 159.725 216.833 160.159C216.972 160.594 216.981 161.067 216.861 161.579C216.747 162.082 216.498 162.59 216.116 163.101Z" fill="#1C1C1C"/>
<path d="M217.862 150.982C217.59 151.128 217.313 151.157 217.031 151.069C216.749 150.98 216.537 150.798 216.393 150.522C216.25 150.246 216.222 149.965 216.309 149.68C216.397 149.394 216.576 149.178 216.849 149.032C217.112 148.891 217.385 148.865 217.667 148.953C217.948 149.041 218.161 149.223 218.304 149.499C218.448 149.775 218.476 150.056 218.388 150.342C218.301 150.628 218.126 150.841 217.862 150.982ZM219.107 151.562L222.931 158.922L221.428 159.726L217.604 152.367L219.107 151.562Z" fill="#1C1C1C"/>
<path d="M230.597 148.931C231.229 148.841 231.804 148.89 232.324 149.079C232.852 149.257 233.281 149.515 233.609 149.853L233.444 148.661L235.148 148.418L236.303 156.759C236.407 157.514 236.342 158.206 236.107 158.837C235.874 159.478 235.479 160.01 234.924 160.434C234.378 160.856 233.69 161.126 232.861 161.245C231.755 161.402 230.8 161.27 229.996 160.848C229.194 160.436 228.681 159.79 228.459 158.911L230.133 158.672C230.32 159.081 230.639 159.384 231.09 159.583C231.552 159.791 232.074 159.853 232.656 159.77C233.338 159.673 233.857 159.386 234.214 158.91C234.581 158.432 234.709 157.796 234.599 157.002L234.41 155.632C234.177 156.06 233.832 156.443 233.376 156.782C232.927 157.109 232.392 157.317 231.77 157.406C231.059 157.507 230.383 157.421 229.741 157.148C229.107 156.864 228.573 156.424 228.138 155.828C227.711 155.22 227.441 154.505 227.327 153.68C227.213 152.856 227.28 152.103 227.527 151.419C227.785 150.734 228.181 150.177 228.716 149.746C229.259 149.304 229.886 149.032 230.597 148.931ZM234.012 152.757C233.933 152.191 233.747 151.717 233.452 151.333C233.167 150.949 232.822 150.674 232.416 150.509C232.011 150.344 231.591 150.293 231.156 150.355C230.722 150.417 230.332 150.584 229.987 150.856C229.641 151.118 229.378 151.474 229.199 151.925C229.028 152.364 228.982 152.867 229.06 153.433C229.138 153.999 229.321 154.479 229.607 154.874C229.903 155.267 230.255 155.551 230.661 155.726C231.077 155.889 231.497 155.941 231.921 155.88C232.356 155.818 232.746 155.651 233.091 155.379C233.436 155.107 233.693 154.747 233.862 154.297C234.04 153.836 234.09 153.323 234.012 152.757Z" fill="#1C1C1C"/>
<path d="M245.29 152.84C245.901 153.063 246.401 153.39 246.79 153.819C247.188 154.252 247.435 154.768 247.531 155.367C247.626 155.966 247.549 156.618 247.298 157.325L245.668 161.916L244.075 161.333L245.62 156.982C245.867 156.285 245.882 155.69 245.665 155.195C245.45 154.691 245.043 154.329 244.441 154.109C243.84 153.889 243.294 153.903 242.803 154.149C242.325 154.389 241.962 154.857 241.715 155.554L240.17 159.905L238.563 159.317L241.326 151.534L242.933 152.121L242.617 153.011C242.994 152.787 243.416 152.66 243.884 152.629C244.361 152.601 244.83 152.671 245.29 152.84Z" fill="#1C1C1C"/>
<path d="M254.903 168.191C254.677 168.401 254.459 168.576 254.249 168.716L250.011 164.007C249.562 164.491 249.339 165.033 249.342 165.632C249.345 166.231 249.561 166.77 249.991 167.247C250.608 167.933 251.326 168.157 252.143 167.918L253.382 169.294C252.658 169.623 251.896 169.707 251.095 169.547C250.308 169.388 249.589 168.946 248.938 168.223C248.408 167.634 248.059 166.986 247.892 166.279C247.739 165.572 247.776 164.868 248.002 164.166C248.242 163.464 248.673 162.826 249.294 162.25C249.915 161.673 250.574 161.295 251.27 161.115C251.98 160.936 252.671 160.958 253.343 161.183C254.022 161.416 254.633 161.834 255.176 162.438C255.7 163.02 256.042 163.653 256.203 164.339C256.364 165.024 256.332 165.704 256.107 166.377C255.889 167.044 255.488 167.649 254.903 168.191ZM254.1 166.494C254.554 166.06 254.772 165.55 254.754 164.964C254.737 164.378 254.51 163.843 254.073 163.358C253.677 162.918 253.2 162.671 252.64 162.615C252.088 162.553 251.551 162.708 251.029 163.082L254.1 166.494Z" fill="#1C1C1C"/>
<path d="M258.129 174.054C258.599 174.177 259.001 174.405 259.333 174.736C259.678 175.074 259.928 175.518 260.084 176.068L258.391 176.563L258.272 176.144C258.088 175.497 257.786 175.053 257.364 174.81C256.946 174.577 256.335 174.579 255.531 174.814L251.369 176.032L250.9 174.382L258.808 172.068L259.277 173.718L258.129 174.054Z" fill="#1C1C1C"/>
<path d="M232.656 168.09L233.233 176.613L241.398 178.69L233.59 181.881L234.167 190.405L228.764 183.853L220.956 187.044L225.425 179.804L220.022 173.253L228.187 175.33L232.656 168.09Z" fill="black"/>
<path d="M244.541 182.803C242.568 190.791 234.603 195.613 226.779 193.623C218.955 191.632 214.171 183.568 216.143 175.579C218.115 167.591 226.081 162.769 233.905 164.76C241.729 166.75 246.513 174.814 244.541 182.803Z" stroke="#1C1C1C" stroke-width="3"/>
<path d="M719.873 437.434C715.04 457.008 695.49 468.899 676.205 463.994C656.921 459.089 645.206 439.244 650.038 419.67C654.871 400.096 674.422 388.205 693.706 393.11C712.991 398.016 724.706 417.86 719.873 437.434Z" fill="#CA5A89"/>
<path d="M673.882 456.135C673.508 456.988 672.928 457.544 672.141 457.804C671.345 458.061 670.469 458.01 669.513 457.652C668.857 457.407 668.333 457.077 667.94 456.663C667.548 456.249 667.303 455.795 667.206 455.3C667.109 454.805 667.153 454.303 667.337 453.796C667.549 453.214 667.885 452.774 668.344 452.477C668.804 452.179 669.274 452.041 669.757 452.062L669.777 452.005C669.286 451.629 668.967 451.158 668.822 450.591C668.673 450.034 668.725 449.408 668.978 448.713C669.179 448.159 669.485 447.713 669.895 447.376C670.305 447.039 670.804 446.836 671.393 446.769C671.979 446.711 672.618 446.812 673.312 447.071C674.324 447.45 675.064 448.021 675.532 448.783C675.988 449.551 676.062 450.433 675.753 451.427L674.207 450.848C674.35 450.336 674.307 449.855 674.076 449.406C673.842 448.966 673.43 448.636 672.839 448.415C672.268 448.201 671.771 448.191 671.349 448.385C670.924 448.588 670.62 448.939 670.44 449.437C670.201 450.094 670.242 450.638 670.565 451.068C670.875 451.504 671.461 451.884 672.323 452.207L672.689 452.344L672.208 453.668L671.828 453.526C671.065 453.251 670.443 453.162 669.961 453.258C669.469 453.352 669.127 453.661 668.936 454.187C668.772 454.638 668.788 455.049 668.983 455.421C669.174 455.802 669.537 456.093 670.071 456.293C670.596 456.489 671.053 456.506 671.443 456.342C671.829 456.188 672.122 455.924 672.322 455.551L673.882 456.135Z" fill="#1C1C1C"/>
<path d="M658.939 447.104C658.182 446.287 657.675 445.425 657.419 444.519C657.149 443.611 657.149 442.717 657.419 441.835C657.674 440.953 658.184 440.147 658.949 439.417C659.713 438.687 660.533 438.223 661.409 438.025C662.278 437.819 663.15 437.88 664.026 438.209C664.888 438.538 665.697 439.11 666.454 439.927L668.776 442.432L661.261 449.609L658.939 447.104ZM665.448 440.887C664.616 439.99 663.741 439.529 662.822 439.505C661.903 439.481 661.011 439.882 660.145 440.708C659.273 441.541 658.814 442.431 658.767 443.377C658.72 444.324 659.112 445.246 659.944 446.143L661.1 447.39L666.604 442.134L665.448 440.887Z" fill="#1C1C1C"/>
<path d="M654.8 413.485L665.165 414.492L665.004 416.196L657.905 415.507L664.706 419.365L664.594 420.546L657.195 423.041L664.294 423.73L664.134 425.435L653.768 424.428L653.942 422.589L662.414 419.731L654.628 415.309L654.8 413.485Z" fill="#1C1C1C"/>
<path d="M671.079 411.995C670.613 412.618 670.053 413.074 669.399 413.363C668.737 413.646 668.044 413.735 667.32 413.631C666.589 413.521 665.886 413.206 665.211 412.685C664.544 412.171 664.063 411.568 663.768 410.874C663.473 410.181 663.378 409.472 663.482 408.746C663.587 408.021 663.875 407.343 664.347 406.712C664.819 406.081 665.385 405.617 666.045 405.32C666.706 405.023 667.404 404.925 668.142 405.028C668.879 405.13 669.581 405.438 670.248 405.952C670.915 406.466 671.393 407.074 671.682 407.775C671.971 408.477 672.062 409.201 671.953 409.948C671.843 410.682 671.552 411.364 671.079 411.995ZM669.9 411.086C670.163 410.735 670.325 410.343 670.385 409.911C670.451 409.471 670.389 409.027 670.199 408.578C670.009 408.129 669.676 407.721 669.199 407.354C668.723 406.987 668.253 406.769 667.79 406.702C667.319 406.629 666.887 406.68 666.493 406.855C666.099 407.03 665.771 407.293 665.508 407.644C665.245 407.996 665.084 408.388 665.023 408.82C664.969 409.244 665.043 409.672 665.245 410.105C665.439 410.531 665.774 410.928 666.251 411.296C666.958 411.84 667.64 412.083 668.298 412.023C668.954 411.95 669.488 411.637 669.9 411.086Z" fill="#1C1C1C"/>
<path d="M674.735 405.095C674.386 404.339 674.23 403.596 674.267 402.868C674.313 402.135 674.528 401.483 674.912 400.911C675.3 400.327 675.823 399.878 676.48 399.566C676.966 399.335 677.494 399.217 678.063 399.213C678.636 399.196 679.145 399.299 679.588 399.521L677.91 395.886L679.463 395.148L684.129 405.261L682.577 405.999L682.053 404.865C681.97 405.349 681.757 405.817 681.417 406.268C681.085 406.714 680.631 407.074 680.055 407.348C679.407 407.656 678.737 407.775 678.046 407.703C677.36 407.619 676.722 407.355 676.134 406.913C675.55 406.457 675.084 405.851 674.735 405.095ZM680.836 402.227C680.597 401.708 680.281 401.308 679.888 401.028C679.504 400.744 679.095 400.583 678.661 400.545C678.226 400.507 677.811 400.583 677.415 400.771C677.019 400.959 676.696 401.235 676.447 401.598C676.193 401.952 676.047 402.371 676.007 402.857C675.972 403.329 676.075 403.824 676.315 404.344C676.554 404.863 676.868 405.269 677.256 405.563C677.653 405.852 678.07 406.02 678.509 406.067C678.953 406.1 679.368 406.025 679.755 405.841C680.151 405.653 680.474 405.377 680.723 405.014C680.973 404.651 681.113 404.229 681.143 403.748C681.178 403.254 681.076 402.747 680.836 402.227Z" fill="#1C1C1C"/>
<path d="M694.703 403.111C694.689 403.422 694.656 403.701 694.605 403.949L688.306 403.657C688.326 404.32 688.546 404.861 688.967 405.282C689.388 405.702 689.918 405.927 690.556 405.957C691.474 405.999 692.14 405.644 692.553 404.891L694.394 404.977C694.11 405.725 693.628 406.33 692.948 406.789C692.278 407.239 691.459 407.442 690.491 407.397C689.703 407.361 689.003 407.153 688.39 406.774C687.788 406.385 687.322 405.862 686.991 405.205C686.671 404.539 686.531 403.78 686.569 402.93C686.607 402.08 686.81 401.342 687.178 400.718C687.557 400.084 688.063 399.606 688.697 399.285C689.341 398.964 690.067 398.822 690.875 398.859C691.653 398.895 692.339 399.097 692.932 399.466C693.526 399.834 693.978 400.336 694.289 400.972C694.601 401.598 694.739 402.311 694.703 403.111ZM692.946 402.489C692.965 401.858 692.763 401.343 692.341 400.942C691.919 400.542 691.384 400.326 690.736 400.296C690.147 400.269 689.635 400.436 689.199 400.796C688.763 401.147 688.491 401.641 688.383 402.277L692.946 402.489Z" fill="#1C1C1C"/>
<path d="M702.963 401.365L697.65 411.089L696.157 410.248L701.47 400.525L702.963 401.365Z" fill="#1C1C1C"/>
<path d="M710.932 409.149L702.656 416.491L701.536 415.191L709.812 407.849L710.932 409.149Z" fill="#1C1C1C"/>
<path d="M711.753 427.348C711.465 427.462 711.199 427.546 710.953 427.6L708.677 421.687C708.084 421.976 707.681 422.401 707.469 422.959C707.257 423.518 707.266 424.098 707.497 424.697C707.828 425.558 708.419 426.025 709.269 426.098L709.934 427.826C709.14 427.871 708.397 427.675 707.705 427.237C707.026 426.804 706.512 426.134 706.163 425.226C705.878 424.486 705.784 423.757 705.881 423.038C705.992 422.326 706.278 421.683 706.742 421.111C707.218 420.545 707.849 420.105 708.637 419.793C709.424 419.481 710.176 419.366 710.891 419.449C711.62 419.538 712.258 419.809 712.805 420.261C713.357 420.722 713.778 421.332 714.07 422.091C714.351 422.821 714.444 423.534 714.349 424.23C714.254 424.926 713.98 425.547 713.528 426.094C713.086 426.636 712.494 427.054 711.753 427.348ZM711.61 425.478C712.19 425.237 712.577 424.841 712.77 424.29C712.964 423.738 712.943 423.158 712.709 422.549C712.496 421.997 712.138 421.594 711.635 421.34C711.141 421.083 710.583 421.034 709.961 421.194L711.61 425.478Z" fill="#1C1C1C"/>
<path d="M712.685 433.821C713.081 434.107 713.376 434.465 713.569 434.895C713.772 435.335 713.849 435.839 713.799 436.408L712.038 436.251L712.076 435.817C712.134 435.149 712.009 434.625 711.701 434.246C711.392 433.876 710.819 433.654 709.984 433.58L705.656 433.193L705.803 431.488L714.027 432.222L713.879 433.927L712.685 433.821Z" fill="#1C1C1C"/>
<path d="M699.155 432.164C697.182 440.152 689.217 444.974 681.393 442.984C673.569 440.994 668.785 432.929 670.757 424.94C672.729 416.952 680.695 412.131 688.519 414.121C696.343 416.111 701.127 424.176 699.155 432.164Z" stroke="black" stroke-width="3"/>
<path d="M687.27 417.451L687.847 425.974L696.012 428.051L688.204 431.242L688.781 439.766L683.378 433.214L675.57 436.405L680.039 429.165L674.636 422.614L682.801 424.691L687.27 417.451Z" fill="#1C1C1C"/>
<path d="M1482.68 776.551C1477.85 796.125 1458.3 808.016 1439.02 803.111C1419.73 798.206 1408.02 778.361 1412.85 758.787C1417.68 739.213 1437.23 727.322 1456.52 732.227C1475.8 737.133 1487.52 756.977 1482.68 776.551Z" fill="#CA5A89"/>
<path d="M1415.74 763.764L1417.12 763.615L1417.58 768.025L1420.63 767.696L1420.27 764.257L1421.66 764.108L1422.02 767.547L1426.54 767.059L1426.72 768.763L1416.38 769.879L1415.74 763.764Z" fill="#1C1C1C"/>
<path d="M1422.18 755.609C1421.86 755.233 1421.66 754.813 1421.58 754.349C1421.49 753.872 1421.53 753.364 1421.72 752.825L1423.39 753.414L1423.25 753.825C1423.03 754.459 1423.03 754.997 1423.23 755.441C1423.44 755.876 1423.95 756.233 1424.74 756.513L1428.84 757.96L1428.29 759.577L1420.49 756.827L1421.04 755.21L1422.18 755.609Z" fill="#1C1C1C"/>
<path d="M1435.19 750.064C1434.68 750.648 1434.09 751.059 1433.41 751.296C1432.73 751.526 1432.03 751.561 1431.32 751.401C1430.6 751.233 1429.92 750.864 1429.29 750.292C1428.66 749.728 1428.23 749.088 1427.99 748.373C1427.75 747.659 1427.71 746.944 1427.87 746.229C1428.03 745.514 1428.37 744.86 1428.89 744.268C1429.41 743.676 1430.01 743.258 1430.69 743.013C1431.37 742.769 1432.08 742.727 1432.8 742.886C1433.53 743.046 1434.21 743.408 1434.83 743.973C1435.46 744.538 1435.89 745.181 1436.12 745.903C1436.35 746.625 1436.39 747.355 1436.22 748.092C1436.05 748.814 1435.71 749.472 1435.19 750.064ZM1434.09 749.065C1434.38 748.735 1434.57 748.357 1434.66 747.931C1434.76 747.498 1434.73 747.05 1434.58 746.587C1434.42 746.125 1434.12 745.692 1433.68 745.289C1433.23 744.885 1432.78 744.632 1432.32 744.529C1431.86 744.419 1431.43 744.435 1431.02 744.579C1430.61 744.723 1430.27 744.959 1429.98 745.289C1429.69 745.619 1429.5 745.997 1429.4 746.423C1429.31 746.842 1429.35 747.275 1429.52 747.722C1429.68 748.163 1429.99 748.585 1430.43 748.988C1431.1 749.587 1431.76 749.882 1432.42 749.874C1433.08 749.852 1433.63 749.582 1434.09 749.065Z" fill="#1C1C1C"/>
<path d="M1442.27 737.805C1442.88 737.573 1443.46 737.493 1444.03 737.564C1444.61 737.633 1445.13 737.864 1445.58 738.259C1446.04 738.654 1446.4 739.204 1446.66 739.909L1448.37 744.492L1446.79 745.097L1445.17 740.754C1444.91 740.058 1444.54 739.593 1444.06 739.358C1443.58 739.114 1443.04 739.106 1442.44 739.335C1441.85 739.563 1441.44 739.934 1441.23 740.445C1441.02 740.944 1441.05 741.541 1441.31 742.237L1442.92 746.581L1441.33 747.191L1438.44 739.421L1440.03 738.81L1440.36 739.699C1440.5 739.279 1440.74 738.903 1441.07 738.571C1441.42 738.235 1441.82 737.98 1442.27 737.805Z" fill="#1C1C1C"/>
<path d="M1454.14 739.848L1453.59 744.394C1453.56 744.702 1453.6 744.934 1453.72 745.09C1453.85 745.238 1454.09 745.334 1454.44 745.377L1455.48 745.507L1455.31 746.923L1453.97 746.756C1453.21 746.66 1452.65 746.409 1452.28 746C1451.92 745.592 1451.79 744.985 1451.88 744.181L1452.43 739.635L1451.47 739.514L1451.64 738.128L1452.6 738.249L1452.85 736.207L1454.56 736.42L1454.31 738.462L1456.31 738.71L1456.14 740.097L1454.14 739.848Z" fill="#1C1C1C"/>
<path d="M1467.77 749.432C1467.62 749.702 1467.47 749.936 1467.31 750.135L1461.82 746.989C1461.54 747.59 1461.5 748.174 1461.69 748.742C1461.88 749.31 1462.25 749.754 1462.81 750.073C1463.6 750.531 1464.36 750.519 1465.06 750.036L1466.66 750.955C1466.08 751.494 1465.38 751.812 1464.57 751.911C1463.77 752.006 1462.95 751.812 1462.11 751.329C1461.42 750.935 1460.89 750.429 1460.51 749.81C1460.15 749.187 1459.96 748.507 1459.96 747.769C1459.97 747.028 1460.18 746.286 1460.6 745.545C1461.01 744.803 1461.52 744.238 1462.12 743.849C1462.74 743.456 1463.41 743.262 1464.12 743.265C1464.83 743.274 1465.54 743.48 1466.25 743.883C1466.93 744.272 1467.45 744.766 1467.81 745.367C1468.18 745.967 1468.36 746.622 1468.35 747.333C1468.35 748.034 1468.16 748.734 1467.77 749.432ZM1466.48 748.072C1466.78 747.517 1466.83 746.964 1466.63 746.414C1466.43 745.863 1466.05 745.426 1465.48 745.102C1464.97 744.808 1464.44 744.722 1463.89 744.845C1463.35 744.958 1462.88 745.274 1462.5 745.793L1466.48 748.072Z" fill="#1C1C1C"/>
<path d="M1475.08 755.306C1475.44 755.849 1475.66 756.409 1475.72 756.987C1475.78 757.574 1475.68 758.138 1475.41 758.679C1475.13 759.22 1474.69 759.702 1474.07 760.124L1470.07 762.873L1469.12 761.457L1472.92 758.852C1473.53 758.435 1473.89 757.962 1474 757.433C1474.13 756.899 1474.01 756.364 1473.65 755.83C1473.3 755.295 1472.85 754.982 1472.31 754.89C1471.78 754.801 1471.22 754.965 1470.61 755.382L1466.81 757.986L1465.86 756.558L1472.65 751.899L1473.6 753.327L1472.83 753.86C1473.26 753.902 1473.68 754.049 1474.07 754.301C1474.47 754.562 1474.81 754.896 1475.08 755.306Z" fill="#1C1C1C"/>
<path d="M1472.87 765.296C1473.69 765.201 1474.44 765.286 1475.11 765.551C1475.78 765.826 1476.33 766.238 1476.74 766.785C1477.16 767.342 1477.42 767.983 1477.5 768.71C1477.56 769.248 1477.5 769.79 1477.32 770.335C1477.15 770.89 1476.89 771.343 1476.54 771.697L1480.49 771.24L1480.69 772.958L1469.68 774.23L1469.49 772.512L1470.73 772.369C1470.3 772.136 1469.93 771.785 1469.61 771.317C1469.3 770.859 1469.11 770.311 1469.04 769.673C1468.96 768.956 1469.06 768.278 1469.35 767.639C1469.65 767.009 1470.11 766.483 1470.71 766.06C1471.33 765.645 1472.05 765.391 1472.87 765.296ZM1473.59 772.037C1474.16 771.972 1474.64 771.796 1475.03 771.509C1475.42 771.231 1475.7 770.891 1475.88 770.487C1476.05 770.083 1476.11 769.662 1476.06 769.224C1476.02 768.786 1475.86 768.39 1475.6 768.037C1475.35 767.682 1475 767.41 1474.56 767.219C1474.13 767.037 1473.63 766.978 1473.06 767.044C1472.5 767.109 1472.02 767.281 1471.62 767.559C1471.22 767.847 1470.92 768.194 1470.74 768.599C1470.56 769.013 1470.5 769.434 1470.55 769.862C1470.6 770.3 1470.75 770.696 1471.01 771.049C1471.27 771.402 1471.63 771.67 1472.07 771.851C1472.52 772.04 1473.03 772.103 1473.59 772.037Z" fill="#1C1C1C"/>
<path d="M1461.97 771.281C1459.99 779.27 1452.03 784.091 1444.2 782.101C1436.38 780.111 1431.6 772.046 1433.57 764.058C1435.54 756.069 1443.51 751.248 1451.33 753.238C1459.15 755.228 1463.94 763.293 1461.97 771.281Z" stroke="black" stroke-width="3"/>
<path d="M1450.08 756.568L1450.66 765.092L1458.82 767.169L1451.02 770.36L1451.59 778.883L1446.19 772.332L1438.38 775.523L1442.85 768.283L1437.45 761.731L1445.61 763.808L1450.08 756.568Z" fill="#1C1C1C"/>
</svg>
