<svg width="1728" height="1117" viewBox="0 0 1728 1117" fill="none" xmlns="http://www.w3.org/2000/svg">
<rect width="1728" height="1117" fill="#121212"/>
<mask id="mask0_251_3606" style="mask-type:alpha" maskUnits="userSpaceOnUse" x="0" y="0" width="1728" height="1117">
<rect width="1728" height="1117" fill="#121212"/>
</mask>
<g mask="url(#mask0_251_3606)">
<path d="M632.116 756.952C429.819 502.232 270 756.952 270 756.952V1117H2630V756.952C2630 756.952 2485.17 975.806 2220.41 756.952C1955.65 538.098 1795.83 756.952 1795.83 756.952C1795.83 756.952 1578.63 1110.09 1388.83 756.952C1199.03 403.81 1001.73 756.952 1001.73 756.952C1001.73 756.952 834.413 1011.67 632.116 756.952Z" fill="#AC4A73"/>
<path d="M2992.12 756.952C2789.82 502.232 2630 756.952 2630 756.952V1117H4990V756.952C4990 756.952 4845.17 975.806 4580.41 756.952C4315.65 538.098 4155.83 756.952 4155.83 756.952C4155.83 756.952 3938.63 1110.09 3748.83 756.952C3559.03 403.81 3361.73 756.952 3361.73 756.952C3361.73 756.952 3194.41 1011.67 2992.12 756.952Z" fill="#AC4A73"/>
<path d="M-1997.88 756.952C-2200.18 502.232 -2360 756.952 -2360 756.952V1117H0V756.952C0 756.952 -144.827 975.806 -409.591 756.952C-674.354 538.098 -834.174 756.952 -834.174 756.952C-834.174 756.952 -1051.37 1110.09 -1241.17 756.952C-1430.97 403.81 -1628.27 756.952 -1628.27 756.952C-1628.27 756.952 -1795.59 1011.67 -1997.88 756.952Z" fill="#CA5A89"/>
<path d="M362.116 756.952C159.819 502.232 0 756.952 0 756.952V1117H2360V756.952C2360 756.952 2215.17 975.806 1950.41 756.952C1685.65 538.098 1525.83 756.952 1525.83 756.952C1525.83 756.952 1308.63 1110.09 1118.83 756.952C929.027 403.81 731.728 756.952 731.728 756.952C731.728 756.952 564.413 1011.67 362.116 756.952Z" fill="#CA5A89"/>
</g>
</svg>
